<?xml version="1.0" encoding="UTF-8"?>
<svg id="Layer_1" xmlns="http://www.w3.org/2000/svg" version="1.1" viewBox="0 0 427.3 120">
  <!-- Generator: Adobe Illustrator 29.0.0, SVG Export Plug-In . SVG Version: 2.1.0 Build 186)  -->
  <defs>
    <style>
      .st0 {
        fill: #256fef;
      }

      .st1 {
        fill: #a8c5f9;
      }

      .st2 {
        fill: #d3e2fc;
      }

      .st3 {
        fill: #0f2c60;
      }
    </style>
  </defs>
  <g>
    <path class="st3" d="M208.5,89.7c-.5,1.7-1.4,3.2-2.7,4.3s-3.2,1.8-5.9,1.8-4.4-.6-5.6-1.7-2.2-2.6-2.7-4.3l-8.8-32.9-8.8,32.9c-.5,1.8-1.3,3.2-2.6,4.3s-3.2,1.7-5.8,1.7-2.5-.2-3.5-.5c-1-.3-1.8-.8-2.4-1.3s-1.2-1.2-1.6-1.9-.7-1.5-1-2.4l-13.3-52.5c-.2-.8-.3-1.6-.2-2.4,0-.8.2-1.7.6-2.4.3-.8.8-1.4,1.5-2,.7-.6,1.5-1,2.5-1.2,1.9-.5,3.5-.4,5,.1,1.4.6,2.4,1.9,3,3.9l9.4,43.7,10.9-44.1c.2-.8.8-1.7,1.9-2.6,1-.9,2.6-1.4,4.7-1.4s3.3.5,4.3,1.4c1,.9,1.6,1.8,1.8,2.6l10.7,44,9.5-43.6c.6-2.1,1.6-3.5,3.2-4.1s3.3-.6,5.4,0c1,.3,1.8.8,2.4,1.4.6.6,1.1,1.3,1.4,2,.3.7.5,1.5.5,2.3s-.1,1.6-.3,2.3l-13.4,52.5h0Z"/>
    <path class="st3" d="M245.3,50.8c2.8,0,5.4.5,7.9,1.4,2.5.9,4.7,2.2,6.5,3.7,1.9,1.6,3.4,3.5,4.5,5.7,1.1,2.2,1.6,4.6,1.6,7.1s-.3,3.7-.9,4.9c-.6,1.2-1.4,2.2-2.3,2.9-.9.7-2,1.1-3.2,1.3s-2.5.3-3.7.3h-19c0,2.5,1,4.5,2.8,5.8s4.3,2.1,7.5,2.1,3.9-.3,5.7-1c1.8-.7,3.2-1.2,4.4-1.7,1.3-.5,2.5-.7,3.7-.6,1.2,0,2.2.8,3,2.2.6,1.1.8,2.3.7,3.7s-.9,2.4-2.1,3.2c-1.5,1.1-3.6,2.1-6.3,2.9-2.7.8-5.9,1.3-9.4,1.3s-6.5-.4-9.2-1.3-5.1-2.1-7-3.7-3.5-3.5-4.6-5.8-1.8-4.7-1.9-7.4c-.1-3.1-.1-6,0-9,0-2.4.6-4.7,1.7-6.9s2.5-4.1,4.4-5.7c1.9-1.6,4.1-3,6.7-3.9s5.5-1.5,8.6-1.5h0ZM251.3,68.6c.9,0,1.5,0,1.8-.2.3-.1.5-.4.5-1,0-1.9-.8-3.4-2.4-4.7-1.6-1.3-3.6-1.9-6.1-1.9s-2.3.2-3.3.4c-1,.3-1.9.7-2.7,1.3-.8.6-1.4,1.2-1.9,2s-.7,1.7-.7,2.6v1.4h14.7Z"/>
    <path class="st3" d="M272.2,46.8c0-2.6.8-4.6,2.2-5.8s3.3-1.9,5.5-1.9,4,.6,5.5,1.9c1.5,1.3,2.3,3.2,2.3,5.8s-.8,4.6-2.3,5.8-3.4,1.8-5.5,1.8-4-.6-5.5-1.8-2.2-3.2-2.2-5.8ZM272.2,75.2c0-2.6.8-4.6,2.2-5.8,1.5-1.3,3.3-1.9,5.5-1.9s4,.6,5.5,1.9c1.5,1.3,2.3,3.2,2.3,5.8s-.8,4.6-2.3,5.8-3.4,1.8-5.5,1.8-4-.6-5.5-1.8c-1.5-1.2-2.2-3.2-2.2-5.8Z"/>
    <path class="st3" d="M333.9,89.4c0,1.9-.6,3.3-1.7,4.3s-2.6,1.5-4.6,1.5-4.5-.8-5.5-2.3c-.9.6-1.9,1.2-2.9,1.5-1,.4-2.1.7-3.2.9-1.1.2-2.1.3-3.1.4-1,0-1.9,0-2.6,0-3,0-5.6-.4-7.7-1.1-2.1-.7-3.8-1.7-5.1-2.9-1.3-1.2-2.3-2.6-2.9-4.1-.6-1.5-.9-3-1-4.6-.3-5.2,1.3-9,4.9-11.5,3.6-2.5,8.9-3.8,16-3.8h6.4c-.1-1.8-.9-3.4-2.4-4.8-1.5-1.4-3.7-2.2-6.6-2.2s-3.7.2-5,.5-2.2.7-2.9,1.1c-1.4.7-2.7.9-4,.9-1.3,0-2.3-.9-2.9-2.6-.6-1.5-.6-2.9-.2-4.1s1.2-2.2,2.4-2.9c1.6-.9,3.5-1.7,5.9-2.2,2.4-.6,4.7-.8,7-.8,3.8,0,7.1.5,9.8,1.5,2.7,1,5,2.3,6.7,4s3,3.6,3.9,5.8c.8,2.2,1.3,4.5,1.3,6.8v20.5h0ZM321.1,77.4h-6.7c-3.1,0-5.3.4-6.4,1.1-1.1.7-1.6,1.8-1.6,3.3s.4,2.2,1.3,3c.9.8,2.2,1.2,3.9,1.2s2.4-.2,3.5-.5,2.2-.8,3-1.4c.9-.6,1.6-1.3,2.1-2.2s.8-1.7.8-2.7v-1.8h0Z"/>
    <path class="st3" d="M340.9,59.1c-.6-1.4-.6-2.9-.1-4.4.5-1.5,1.7-2.7,3.6-3.5,1.7-.7,3.3-.7,4.8,0,1.5.7,2.6,1.9,3.3,3.8l9.3,24c.7-1.9,1.5-4,2.3-6.2s1.6-4.3,2.5-6.6c.9-2.2,1.7-4.4,2.5-6.5.8-2.2,1.6-4.2,2.3-6.1.1-.4.4-.8.8-1.3s.9-.8,1.5-1.1c.6-.3,1.3-.5,2.1-.6.8,0,1.8,0,2.8.4,1.7.6,3,1.7,3.7,3.2.7,1.6.8,3.2.1,4.9l-12.3,30.8c-.2.6-.5,1.2-1,1.9s-1,1.3-1.7,1.9c-.7.6-1.5,1.1-2.4,1.4s-2,.6-3.2.6-2.5-.2-3.4-.6-1.8-.9-2.4-1.5-1.2-1.2-1.6-1.9c-.4-.7-.8-1.3-1-1.8l-12.4-30.9h0Z"/>
    <path class="st3" d="M408.4,50.8c2.8,0,5.4.5,7.9,1.4,2.5.9,4.7,2.2,6.5,3.7,1.9,1.6,3.4,3.5,4.5,5.7,1.1,2.2,1.6,4.6,1.6,7.1s-.3,3.7-.9,4.9c-.6,1.2-1.4,2.2-2.3,2.9-.9.7-2,1.1-3.2,1.3s-2.5.3-3.7.3h-19c0,2.5,1,4.5,2.8,5.8s4.3,2.1,7.5,2.1,3.9-.3,5.7-1c1.8-.7,3.2-1.2,4.4-1.7,1.3-.5,2.5-.7,3.7-.6,1.2,0,2.2.8,3,2.2.6,1.1.8,2.3.7,3.7s-.9,2.4-2.1,3.2c-1.5,1.1-3.6,2.1-6.3,2.9-2.7.8-5.9,1.3-9.4,1.3s-6.5-.4-9.2-1.3c-2.7-.9-5.1-2.1-7-3.7s-3.5-3.5-4.6-5.8-1.8-4.7-1.9-7.4c-.1-3.1-.1-6,0-9,0-2.4.6-4.7,1.7-6.9s2.5-4.1,4.4-5.7c1.9-1.6,4.1-3,6.7-3.9s5.5-1.5,8.6-1.5h0ZM414.5,68.6c.9,0,1.5,0,1.8-.2.3-.1.5-.4.5-1,0-1.9-.8-3.4-2.4-4.7-1.6-1.3-3.6-1.9-6.1-1.9s-2.3.2-3.3.4c-1,.3-1.9.7-2.7,1.3-.8.6-1.4,1.2-1.9,2s-.7,1.7-.7,2.6v1.4h14.7Z"/>
  </g>
  <g>
    <path class="st3" d="M4.1,76.9C1.7,77.4,0,79.4,0,81.8v10.9c0,3.1,2.8,5.5,5.9,4.9l58-11,5.7-22.1L4.1,76.9h0Z"/>
    <path class="st1" d="M11.7,105.7L35.8,16.2c.6-2.2,2.6-3.7,4.8-3.7h10.7c3.3,0,5.7,3.1,4.8,6.3l-24.1,89.4c-.6,2.2-2.6,3.7-4.8,3.7h-10.7c-3.3,0-5.7-3.1-4.8-6.3h0Z"/>
    <path class="st3" d="M111.5,56.5l-19.8,3.8-5.7,22.1,27.4-5.2c2.4-.4,4.1-2.5,4.1-4.9v-10.9c0-3.1-2.8-5.5-5.9-4.9h0Z"/>
    <path class="st0" d="M58.9,106.2c-.8,3.3,1.5,6.6,4.8,6.6h10.7c2.2,0,4.2-1.6,4.8-3.9l6.8-26.5-22.1,4.2s-5,19.6-5,19.6Z"/>
    <polygon class="st3" points="69.6 64.5 63.9 86.6 86 82.4 91.7 60.3 69.6 64.5"/>
    <path class="st2" d="M113.4,41.8L5.9,62.2c-3.1.6-5.9-1.8-5.9-4.9v-10.9c0-2.4,1.7-4.5,4-4.9l107.5-20.4c3.1-.6,5.9,1.8,5.9,4.9v10.9c0,2.4-1.7,4.5-4.1,4.9Z"/>
    <path class="st0" d="M103.3,14.7c.9-3.3-1.5-6.6-4.8-6.6h-10.7c-2.2,0-4.2,1.6-4.8,3.9l-13.4,52.5,22.1-4.2,11.7-45.6h0Z"/>
  </g>
</svg>