<?xml version="1.0" encoding="UTF-8"?>
<svg id="Layer_1" data-name="Layer 1" xmlns="http://www.w3.org/2000/svg" viewBox="0 0 500 120">
  <defs>
    <style>
      .cls-1 {
        fill: #256fef;
      }

      .cls-2 {
        fill: #a8c5f9;
      }

      .cls-3 {
        fill: #d3e2fc;
      }

      .cls-4 {
        fill: #0f2c60;
      }
    </style>
  </defs>
  <g>
    <path class="cls-4" d="M244.07,89.65c-.51,1.7-1.4,3.15-2.67,4.35-1.27,1.2-3.23,1.8-5.87,1.8-2.49,0-4.37-.56-5.64-1.67-1.27-1.11-2.16-2.55-2.67-4.31l-8.84-32.9-8.76,32.9c-.46,1.76-1.33,3.2-2.63,4.31-1.3,1.11-3.21,1.67-5.75,1.67-1.37,0-2.54-.16-3.5-.48-.97-.32-1.78-.76-2.44-1.32-.66-.56-1.19-1.2-1.6-1.93-.41-.73-.74-1.54-.99-2.42l-13.26-52.51c-.2-.76-.28-1.57-.23-2.42.05-.85.24-1.66.57-2.42.33-.76.82-1.44,1.49-2.02.66-.59,1.5-1,2.51-1.23,1.88-.47,3.54-.42,4.99.13,1.45.56,2.45,1.86,3.01,3.91l9.45,43.71,10.89-44.07c.2-.82.82-1.68,1.87-2.59,1.04-.91,2.6-1.36,4.69-1.36,1.88,0,3.3.47,4.27,1.41.96.94,1.55,1.82,1.75,2.64l10.74,43.98,9.52-43.63c.56-2.11,1.61-3.47,3.16-4.09,1.55-.62,3.34-.6,5.37.04,1.02.29,1.83.75,2.44,1.36.61.62,1.07,1.29,1.37,2.02.31.73.46,1.51.46,2.33s-.1,1.58-.31,2.29l-13.41,52.51Z"/>
    <path class="cls-4" d="M280.79,50.77c2.79,0,5.43.45,7.92,1.36,2.49.91,4.67,2.15,6.55,3.74,1.88,1.58,3.36,3.47,4.46,5.67,1.09,2.2,1.64,4.56,1.64,7.08,0,2.05-.29,3.69-.88,4.93-.58,1.23-1.35,2.19-2.29,2.86-.94.68-2.02,1.11-3.24,1.32-1.22.21-2.46.31-3.73.31h-19.05c.05,2.52.98,4.47,2.78,5.85,1.8,1.38,4.3,2.07,7.5,2.07,2.03,0,3.94-.34,5.71-1.01,1.78-.67,3.25-1.25,4.42-1.72,1.27-.47,2.51-.67,3.73-.62,1.22.06,2.21.79,2.97,2.2.61,1.11.84,2.33.69,3.65-.15,1.32-.86,2.39-2.13,3.21-1.47,1.11-3.58,2.1-6.32,2.95-2.74.85-5.87,1.28-9.37,1.28s-6.48-.44-9.22-1.32c-2.74-.88-5.09-2.13-7.05-3.74-1.96-1.61-3.49-3.53-4.61-5.76-1.12-2.23-1.75-4.69-1.9-7.39-.15-3.05-.15-6.04,0-8.97.05-2.4.61-4.69,1.68-6.86,1.07-2.17,2.54-4.07,4.42-5.72,1.88-1.64,4.11-2.95,6.7-3.91s5.46-1.45,8.61-1.45ZM286.88,68.63c.86,0,1.46-.06,1.79-.18.33-.12.49-.44.49-.97,0-1.88-.8-3.44-2.4-4.71-1.6-1.26-3.62-1.89-6.06-1.89-1.17,0-2.26.15-3.28.44-1.02.29-1.92.72-2.7,1.28-.79.56-1.41,1.23-1.87,2.02-.46.79-.69,1.66-.69,2.59v1.41h14.7Z"/>
    <path class="cls-4" d="M307.76,46.82c0-2.64.75-4.59,2.25-5.85,1.5-1.26,3.31-1.89,5.45-1.89s3.96.63,5.49,1.89c1.52,1.26,2.28,3.21,2.28,5.85s-.76,4.57-2.28,5.8c-1.52,1.23-3.35,1.85-5.49,1.85s-3.95-.62-5.45-1.85c-1.5-1.23-2.25-3.17-2.25-5.8ZM307.76,75.23c0-2.64.75-4.59,2.25-5.85,1.5-1.26,3.31-1.89,5.45-1.89s3.96.63,5.49,1.89c1.52,1.26,2.28,3.21,2.28,5.85s-.76,4.57-2.28,5.8c-1.52,1.23-3.35,1.85-5.49,1.85s-3.95-.62-5.45-1.85c-1.5-1.23-2.25-3.17-2.25-5.8Z"/>
    <path class="cls-4" d="M369.46,89.39c0,1.88-.56,3.33-1.68,4.35-1.12,1.02-2.64,1.54-4.57,1.54-2.64,0-4.47-.76-5.49-2.29-.91.64-1.89,1.16-2.93,1.54-1.04.38-2.1.67-3.16.88-1.07.21-2.1.34-3.09.4-.99.06-1.87.09-2.63.09-3.05,0-5.63-.37-7.73-1.1-2.11-.73-3.82-1.7-5.14-2.9-1.32-1.2-2.27-2.55-2.86-4.05-.58-1.49-.9-3.03-.95-4.62-.3-5.16,1.33-9,4.91-11.52,3.58-2.52,8.92-3.78,16.04-3.78h6.4c-.1-1.76-.91-3.36-2.44-4.79-1.52-1.44-3.73-2.15-6.63-2.15-2.08,0-3.73.18-4.95.53-1.22.35-2.18.7-2.9,1.06-1.37.65-2.7.94-4,.88-1.3-.06-2.27-.94-2.93-2.64-.56-1.52-.64-2.89-.23-4.09.41-1.2,1.22-2.15,2.44-2.86,1.57-.94,3.54-1.69,5.9-2.24,2.36-.56,4.69-.84,6.97-.84,3.81,0,7.07.5,9.79,1.49,2.72,1,4.95,2.33,6.7,4s3.05,3.61,3.89,5.8c.84,2.2,1.26,4.47,1.26,6.82v20.49ZM356.67,77.42h-6.7c-3.15,0-5.27.37-6.36,1.1-1.09.73-1.64,1.83-1.64,3.3,0,1.23.44,2.24,1.33,3.03.89.79,2.17,1.19,3.85,1.19,1.22,0,2.4-.18,3.54-.53,1.14-.35,2.16-.84,3.05-1.45.89-.62,1.6-1.33,2.13-2.15.53-.82.8-1.73.8-2.73v-1.76Z"/>
    <path class="cls-4" d="M376.47,59.13c-.56-1.41-.6-2.87-.11-4.4.48-1.52,1.69-2.7,3.62-3.52,1.68-.7,3.26-.73,4.76-.09,1.5.65,2.6,1.91,3.31,3.78l9.29,24.01c.71-1.94,1.47-3.99,2.28-6.16.81-2.17,1.65-4.35,2.51-6.55.86-2.2,1.71-4.38,2.55-6.55.84-2.17,1.61-4.19,2.32-6.07.15-.41.42-.84.8-1.28s.86-.82,1.45-1.14c.58-.32,1.28-.51,2.1-.57.81-.06,1.75.09,2.82.44,1.73.59,2.96,1.67,3.69,3.25.74,1.58.77,3.23.12,4.93l-12.34,30.78c-.2.59-.53,1.22-.99,1.89-.46.67-1.03,1.3-1.71,1.89-.69.59-1.5,1.07-2.44,1.45-.94.38-1.99.57-3.16.57-1.32,0-2.46-.21-3.43-.62-.97-.41-1.78-.91-2.44-1.5-.66-.59-1.21-1.22-1.64-1.89-.43-.67-.75-1.28-.95-1.8l-12.42-30.87Z"/>
    <path class="cls-4" d="M443.89,50.77c2.79,0,5.43.45,7.92,1.36,2.49.91,4.67,2.15,6.55,3.74,1.88,1.58,3.36,3.47,4.46,5.67,1.09,2.2,1.64,4.56,1.64,7.08,0,2.05-.29,3.69-.88,4.93-.58,1.23-1.35,2.19-2.29,2.86-.94.68-2.02,1.11-3.24,1.32-1.22.21-2.46.31-3.73.31h-19.04c.05,2.52.98,4.47,2.78,5.85,1.8,1.38,4.3,2.07,7.5,2.07,2.03,0,3.94-.34,5.71-1.01,1.78-.67,3.25-1.25,4.42-1.72,1.27-.47,2.51-.67,3.73-.62,1.22.06,2.21.79,2.97,2.2.61,1.11.84,2.33.69,3.65-.15,1.32-.86,2.39-2.13,3.21-1.47,1.11-3.58,2.1-6.32,2.95-2.74.85-5.87,1.28-9.37,1.28s-6.47-.44-9.22-1.32c-2.74-.88-5.09-2.13-7.05-3.74-1.96-1.61-3.49-3.53-4.61-5.76-1.12-2.23-1.75-4.69-1.9-7.39-.15-3.05-.15-6.04,0-8.97.05-2.4.61-4.69,1.68-6.86,1.07-2.17,2.54-4.07,4.42-5.72,1.88-1.64,4.11-2.95,6.7-3.91s5.46-1.45,8.61-1.45ZM449.98,68.63c.86,0,1.46-.06,1.79-.18.33-.12.49-.44.49-.97,0-1.88-.8-3.44-2.4-4.71-1.6-1.26-3.62-1.89-6.06-1.89-1.17,0-2.26.15-3.28.44-1.02.29-1.92.72-2.7,1.28-.79.56-1.41,1.23-1.87,2.02-.46.79-.69,1.66-.69,2.59v1.41h14.7Z"/>
  </g>
  <g>
    <path class="cls-4" d="M39.59,76.93c-2.35.45-4.05,2.5-4.05,4.9v10.89c0,3.13,2.84,5.48,5.92,4.9l57.98-11.02,5.65-22.11-65.49,12.45Z"/>
    <path class="cls-2" d="M47.25,105.7l24.09-89.45c.59-2.18,2.56-3.69,4.81-3.69h10.71c3.28,0,5.67,3.11,4.81,6.28l-24.09,89.45c-.59,2.18-2.56,3.69-4.81,3.69h-10.71c-3.28,0-5.67-3.11-4.81-6.28Z"/>
    <path class="cls-4" d="M147.05,56.51l-19.85,3.77-5.65,22.11,27.37-5.2c2.35-.45,4.05-2.5,4.05-4.9v-10.89c0-3.13-2.84-5.48-5.92-4.9Z"/>
    <path class="cls-1" d="M94.43,106.17c-.85,3.34,1.53,6.62,4.81,6.62h10.71c2.25,0,4.23-1.59,4.81-3.89l6.78-26.5-22.11,4.2-5,19.57Z"/>
    <polygon class="cls-4" points="105.09 64.49 99.43 86.6 121.55 82.4 127.2 60.28 105.09 64.49"/>
    <path class="cls-3" d="M148.91,41.76l-107.46,20.42c-3.07.58-5.92-1.77-5.92-4.9v-10.89c0-2.39,1.7-4.45,4.05-4.9l107.46-20.42c3.07-.58,5.92,1.77,5.92,4.9v10.89c0,2.39-1.7,4.45-4.05,4.9Z"/>
    <path class="cls-1" d="M138.86,14.68c.85-3.34-1.53-6.62-4.81-6.62h-10.71c-2.25,0-4.23,1.59-4.81,3.89l-13.43,52.54,22.11-4.2,11.66-45.6Z"/>
  </g>
</svg>