<?xml version="1.0" encoding="UTF-8"?>
<svg id="Layer_1" data-name="Layer 1" xmlns="http://www.w3.org/2000/svg" viewBox="0 0 500 120">
  <defs>
    <style>
      .cls-1 {
        fill: #256fef;
      }

      .cls-2 {
        fill: #a8c5f9;
      }

      .cls-3 {
        fill: #d3e2fc;
      }

      .cls-4 {
        fill: #0f2c60;
      }
    </style>
  </defs>
  <g>
    <path class="cls-4" d="M240.15,70.85c-.51,1.7-1.4,3.15-2.67,4.35-1.27,1.2-3.23,1.8-5.87,1.8-2.49,0-4.37-.56-5.64-1.67-1.27-1.11-2.16-2.55-2.67-4.31l-8.84-32.9-8.76,32.9c-.46,1.76-1.33,3.2-2.63,4.31-1.3,1.11-3.21,1.67-5.75,1.67-1.37,0-2.54-.16-3.5-.48-.97-.32-1.78-.76-2.44-1.32-.66-.56-1.19-1.2-1.6-1.93-.41-.73-.74-1.54-.99-2.42l-13.26-52.51c-.2-.76-.28-1.57-.23-2.42.05-.85.24-1.66.57-2.42.33-.76.82-1.44,1.49-2.02.66-.59,1.5-1,2.51-1.23,1.88-.47,3.54-.42,4.99.13,1.45.56,2.45,1.86,3.01,3.91l9.45,43.71,10.89-44.07c.2-.82.82-1.68,1.87-2.59,1.04-.91,2.6-1.36,4.69-1.36,1.88,0,3.3.47,4.27,1.41.96.94,1.55,1.82,1.75,2.64l10.74,43.98,9.52-43.63c.56-2.11,1.61-3.47,3.16-4.09,1.55-.62,3.34-.6,5.37.04,1.02.29,1.83.75,2.44,1.36.61.62,1.07,1.29,1.37,2.02.31.73.46,1.51.46,2.33s-.1,1.58-.31,2.29l-13.41,52.51Z"/>
    <path class="cls-4" d="M276.87,31.98c2.79,0,5.43.45,7.92,1.36,2.49.91,4.67,2.15,6.55,3.74,1.88,1.58,3.36,3.47,4.46,5.67,1.09,2.2,1.64,4.56,1.64,7.08,0,2.05-.29,3.69-.88,4.93-.58,1.23-1.35,2.19-2.29,2.86-.94.68-2.02,1.11-3.24,1.32-1.22.21-2.46.31-3.73.31h-19.05c.05,2.52.98,4.47,2.78,5.85,1.8,1.38,4.3,2.07,7.5,2.07,2.03,0,3.94-.34,5.71-1.01,1.78-.67,3.25-1.25,4.42-1.72,1.27-.47,2.51-.67,3.73-.62,1.22.06,2.21.79,2.97,2.2.61,1.11.84,2.33.69,3.65-.15,1.32-.86,2.39-2.13,3.21-1.47,1.11-3.58,2.1-6.32,2.95-2.74.85-5.87,1.28-9.37,1.28s-6.48-.44-9.22-1.32c-2.74-.88-5.09-2.13-7.05-3.74-1.96-1.61-3.49-3.53-4.61-5.76-1.12-2.23-1.75-4.69-1.9-7.39-.15-3.05-.15-6.04,0-8.97.05-2.4.61-4.69,1.68-6.86,1.07-2.17,2.54-4.07,4.42-5.72,1.88-1.64,4.11-2.95,6.7-3.91s5.46-1.45,8.61-1.45ZM282.97,49.83c.86,0,1.46-.06,1.79-.18.33-.12.49-.44.49-.97,0-1.88-.8-3.44-2.4-4.71-1.6-1.26-3.62-1.89-6.06-1.89-1.17,0-2.26.15-3.28.44-1.02.29-1.92.72-2.7,1.28-.79.56-1.41,1.23-1.87,2.02-.46.79-.69,1.66-.69,2.59v1.41h14.7Z"/>
    <path class="cls-4" d="M303.84,28.02c0-2.64.75-4.59,2.25-5.85,1.5-1.26,3.31-1.89,5.45-1.89s3.96.63,5.49,1.89c1.52,1.26,2.28,3.21,2.28,5.85s-.76,4.57-2.28,5.8c-1.52,1.23-3.35,1.85-5.49,1.85s-3.95-.62-5.45-1.85c-1.5-1.23-2.25-3.17-2.25-5.8ZM303.84,56.43c0-2.64.75-4.59,2.25-5.85,1.5-1.26,3.31-1.89,5.45-1.89s3.96.63,5.49,1.89c1.52,1.26,2.28,3.21,2.28,5.85s-.76,4.57-2.28,5.8c-1.52,1.23-3.35,1.85-5.49,1.85s-3.95-.62-5.45-1.85c-1.5-1.23-2.25-3.17-2.25-5.8Z"/>
    <path class="cls-4" d="M365.55,70.59c0,1.88-.56,3.33-1.68,4.35-1.12,1.02-2.64,1.54-4.57,1.54-2.64,0-4.47-.76-5.49-2.29-.91.64-1.89,1.16-2.93,1.54-1.04.38-2.1.67-3.16.88-1.07.21-2.1.34-3.09.4-.99.06-1.87.09-2.63.09-3.05,0-5.63-.37-7.73-1.1-2.11-.73-3.82-1.7-5.14-2.9-1.32-1.2-2.27-2.55-2.86-4.05-.58-1.49-.9-3.03-.95-4.62-.3-5.16,1.33-9,4.91-11.52,3.58-2.52,8.92-3.78,16.04-3.78h6.4c-.1-1.76-.91-3.36-2.44-4.79-1.52-1.44-3.73-2.15-6.63-2.15-2.08,0-3.73.18-4.95.53-1.22.35-2.18.7-2.9,1.06-1.37.65-2.7.94-4,.88-1.3-.06-2.27-.94-2.93-2.64-.56-1.52-.64-2.89-.23-4.09.41-1.2,1.22-2.15,2.44-2.86,1.57-.94,3.54-1.69,5.9-2.24,2.36-.56,4.69-.84,6.97-.84,3.81,0,7.07.5,9.79,1.49,2.72,1,4.95,2.33,6.7,4s3.05,3.61,3.89,5.8c.84,2.2,1.26,4.47,1.26,6.82v20.49ZM352.75,58.63h-6.7c-3.15,0-5.27.37-6.36,1.1-1.09.73-1.64,1.83-1.64,3.3,0,1.23.44,2.24,1.33,3.03.89.79,2.17,1.19,3.85,1.19,1.22,0,2.4-.18,3.54-.53,1.14-.35,2.16-.84,3.05-1.45.89-.62,1.6-1.33,2.13-2.15.53-.82.8-1.73.8-2.73v-1.76Z"/>
    <path class="cls-4" d="M372.55,40.33c-.56-1.41-.6-2.87-.11-4.4.48-1.52,1.69-2.7,3.62-3.52,1.68-.7,3.26-.73,4.76-.09,1.5.65,2.6,1.91,3.31,3.78l9.29,24.01c.71-1.94,1.47-3.99,2.28-6.16.81-2.17,1.65-4.35,2.51-6.55.86-2.2,1.71-4.38,2.55-6.55.84-2.17,1.61-4.19,2.32-6.07.15-.41.42-.84.8-1.28s.86-.82,1.45-1.14c.58-.32,1.28-.51,2.1-.57.81-.06,1.75.09,2.82.44,1.73.59,2.96,1.67,3.69,3.25.74,1.58.77,3.23.12,4.93l-12.34,30.78c-.2.59-.53,1.22-.99,1.89-.46.67-1.03,1.3-1.71,1.89-.69.59-1.5,1.07-2.44,1.45-.94.38-1.99.57-3.16.57-1.32,0-2.46-.21-3.43-.62-.97-.41-1.78-.91-2.44-1.5-.66-.59-1.21-1.22-1.64-1.89-.43-.67-.75-1.28-.95-1.8l-12.42-30.87Z"/>
    <path class="cls-4" d="M439.97,31.98c2.79,0,5.43.45,7.92,1.36,2.49.91,4.67,2.15,6.55,3.74,1.88,1.58,3.36,3.47,4.46,5.67,1.09,2.2,1.64,4.56,1.64,7.08,0,2.05-.29,3.69-.88,4.93-.58,1.23-1.35,2.19-2.29,2.86-.94.68-2.02,1.11-3.24,1.32-1.22.21-2.46.31-3.73.31h-19.04c.05,2.52.98,4.47,2.78,5.85,1.8,1.38,4.3,2.07,7.5,2.07,2.03,0,3.94-.34,5.71-1.01,1.78-.67,3.25-1.25,4.42-1.72,1.27-.47,2.51-.67,3.73-.62,1.22.06,2.21.79,2.97,2.2.61,1.11.84,2.33.69,3.65-.15,1.32-.86,2.39-2.13,3.21-1.47,1.11-3.58,2.1-6.32,2.95-2.74.85-5.87,1.28-9.37,1.28s-6.47-.44-9.22-1.32c-2.74-.88-5.09-2.13-7.05-3.74-1.96-1.61-3.49-3.53-4.61-5.76-1.12-2.23-1.75-4.69-1.9-7.39-.15-3.05-.15-6.04,0-8.97.05-2.4.61-4.69,1.68-6.86,1.07-2.17,2.54-4.07,4.42-5.72,1.88-1.64,4.11-2.95,6.7-3.91s5.46-1.45,8.61-1.45ZM446.07,49.83c.86,0,1.46-.06,1.79-.18.33-.12.49-.44.49-.97,0-1.88-.8-3.44-2.4-4.71-1.6-1.26-3.62-1.89-6.06-1.89-1.17,0-2.26.15-3.28.44-1.02.29-1.92.72-2.7,1.28-.79.56-1.41,1.23-1.87,2.02-.46.79-.69,1.66-.69,2.59v1.41h14.7Z"/>
  </g>
  <g>
    <path class="cls-4" d="M35.68,75.09c-2.35.45-4.05,2.5-4.05,4.9v10.89c0,3.13,2.84,5.48,5.92,4.9l57.98-11.02,5.65-22.11-65.49,12.45Z"/>
    <path class="cls-2" d="M43.33,103.85L67.43,14.4c.59-2.18,2.56-3.69,4.81-3.69h10.71c3.28,0,5.67,3.11,4.81,6.28l-24.09,89.45c-.59,2.18-2.56,3.69-4.81,3.69h-10.71c-3.28,0-5.67-3.11-4.81-6.28Z"/>
    <path class="cls-4" d="M143.13,54.67l-19.85,3.77-5.65,22.11,27.37-5.2c2.35-.45,4.05-2.5,4.05-4.9v-10.89c0-3.13-2.84-5.48-5.92-4.9Z"/>
    <path class="cls-1" d="M90.51,104.32c-.85,3.34,1.53,6.62,4.81,6.62h10.71c2.25,0,4.23-1.59,4.81-3.89l6.78-26.5-22.11,4.2-5,19.57Z"/>
    <polygon class="cls-4" points="101.17 62.64 95.51 84.76 117.63 80.55 123.28 58.44 101.17 62.64"/>
    <path class="cls-3" d="M145,39.91l-107.46,20.42c-3.07.58-5.92-1.77-5.92-4.9v-10.89c0-2.39,1.7-4.45,4.05-4.9l107.46-20.42c3.07-.58,5.92,1.77,5.92,4.9v10.89c0,2.39-1.7,4.45-4.05,4.9Z"/>
    <path class="cls-1" d="M134.95,12.84c.85-3.34-1.53-6.62-4.81-6.62h-10.71c-2.25,0-4.23,1.59-4.81,3.89l-13.43,52.54,22.11-4.2,11.66-45.6Z"/>
  </g>
  <g>
    <path class="cls-4" d="M184.63,103.17c.61-.19,1.21.12,1.21.85,0,.5-.19.79-.75.99-1.5.53-4.2.79-5.94.79-1.35,0-2.36-.44-2.36-1.81v-4.86c0-.61.46-1.02,1.16-1.02h5.89c.56,0,.89.36.89.96,0,.63-.32.97-.89.97h-4.92v3.11c0,.43.14.7.72.7,1.84,0,3.57-.24,4.98-.67ZM183.62,106.52c3.05,0,5.02,1.26,5.02,3.41s-1.98,3.46-5.02,3.46c-3.21,0-5.03-1.26-5.03-3.46s1.83-3.41,5.03-3.41ZM183.62,111.49c1.72,0,2.87-.43,2.87-1.55s-1.14-1.55-2.87-1.55-2.87.44-2.87,1.55,1.16,1.55,2.87,1.55ZM186.59,98.38c0-.51.34-.85,1.02-.85s1.02.34,1.02.85v2.36h1.35c.53,0,.87.29.87.99s-.34.99-.87.99h-1.35v2.66c0,.51-.34.85-1.02.85s-1.02-.34-1.02-.85v-7Z"/>
    <path class="cls-4" d="M198.67,106.84c-.61,0-1.09-.51-1.09-1.07,0-.24.07-.53.32-.75,2.27-1.91,3.38-4.11,3.86-5.79.15-.55.43-.96,1.02-.96.9,0,1.33.51,1.16,1.25-.65,2.71-2.32,5.26-4.47,7.03-.31.26-.53.29-.8.29ZM200.31,108c0-.51.41-.85,1.09-.85s1.09.34,1.09.85v2.54c0,.32.17.44.53.44h6.72c.53,0,.87.31.87,1.01s-.34,1.01-.87,1.01h-7.37c-1.2,0-2.07-.46-2.07-1.81v-3.19ZM203.11,103.79c-.14-.17-.22-.38-.22-.63,0-.53.46-1.04,1.04-1.04.22,0,.44.03.67.2.67.55,1.59,1.62,2.08,2.34.22.31.32.49.32.75,0,.77-.67,1.16-1.14,1.16s-.72-.22-.97-.53l-1.77-2.25ZM208.28,98.38c0-.51.34-.85,1.02-.85s1.02.34,1.02.85v9.28c0,.51-.34.85-1.02.85s-1.02-.34-1.02-.85v-9.28Z"/>
    <path class="cls-4" d="M218.48,109.27c0-.51.24-.97.84-.97,3.81,0,6.55-.39,8.53-1.01.9-.27,1.23.49,1.23,1.01,0,.48-.22.73-.53.85-2.25.87-6.83,1.19-9.1,1.16-.62-.02-.97-.43-.97-1.04ZM223.36,98.31c2.51,0,4.15,1.31,4.15,3.89s-1.64,3.91-4.15,3.91-4.2-1.25-4.2-3.91,1.71-3.89,4.2-3.89ZM223.36,100.19c-1.2,0-2.12.53-2.12,2.01s.92,2.03,2.12,2.03,2.1-.55,2.1-2.03-.9-2.01-2.1-2.01ZM229.45,98.38c0-.51.34-.85,1.02-.85s1.02.34,1.02.85v12.72c0,.51-.34.85-1.02.85s-1.02-.34-1.02-.85v-12.72Z"/>
    <path class="cls-4" d="M250.41,98.77c0-.51.38-.85,1.06-.85h8.6c.53,0,.87.24.87.94s-.34.92-.87.92h-7.58v1.25c0,.36.15.53.61.53h6.98c.53,0,.87.24.87.94s-.34.92-.87.92h-3.29v1.31h5.02c.53,0,.87.32.87.96s-.34.94-.87.94h-12.48c-.53,0-.87-.31-.87-.94s.34-.96.87-.96h5.41v-1.31h-2.12c-1.25,0-2.22-.34-2.22-1.67v-2.97ZM255.65,107.66c3.46,0,5.46.73,5.46,2.85,0,1.96-2,2.87-5.46,2.87-3.65,0-5.48-.89-5.48-2.87,0-2.13,1.86-2.85,5.48-2.85ZM255.65,111.49c2.29,0,3.33-.24,3.33-.97s-1.02-1.01-3.33-1.01-3.35.24-3.35,1.01.99.97,3.35.97Z"/>
    <path class="cls-4" d="M274.23,98.63c2.51,0,4.23,1.43,4.23,5.15s-1.72,5.17-4.23,5.17-4.28-1.31-4.28-5.17,1.79-5.15,4.28-5.15ZM274.23,100.61c-1.36,0-2.22.96-2.22,3.17s.85,3.19,2.22,3.19,2.2-.97,2.2-3.19-.84-3.17-2.2-3.17ZM280.17,98.38c0-.51.34-.85,1.02-.85s1.02.34,1.02.85v4.51h1.35c.53,0,.87.29.87.99s-.34.99-.87.99h-1.35v6.23c0,.51-.34.85-1.02.85s-1.02-.34-1.02-.85v-12.72Z"/>
    <path class="cls-4" d="M292.69,100.56c-.48,0-.82-.34-.82-1.01,0-.72.34-1.01.82-1.01h5.41c.94.02,1.31.72,1.31,1.16v4.11c0,.63-.46.99-.9.99h-4.57v2.01c0,.48.24.8.9.8,1.77,0,3.46-.12,5-.48.61-.14,1.25.1,1.25.97,0,.53-.19.87-.75,1.02-1.59.43-3.76.58-5.82.58-1.4,0-2.71-.58-2.71-2.25v-3.65c0-.61.29-1.02.89-1.02h4.59v-1.95c0-.27-.17-.29-.43-.29h-4.16ZM301.86,98.38c0-.51.34-.85,1.02-.85s1.02.34,1.02.85v12.72c0,.51-.34.85-1.02.85s-1.02-.34-1.02-.85v-12.72Z"/>
    <path class="cls-4" d="M313.78,109.69c.55,0,.92.29,1.09.67.55,1.09.08,3.04-1.81,3.41-.24.05-.51-.12-.51-.51,0-.27.15-.36.32-.41.67-.19.89-.68.56-.75-.53-.15-.87-.63-.87-1.18,0-.67.46-1.23,1.21-1.23Z"/>
    <path class="cls-4" d="M332.36,108.62c-.53,0-.87-.38-.87-1.01s.34-1.01.87-1.01h12.48c.53,0,.87.38.87,1.01s-.34,1.01-.87,1.01h-5.07v3.79c0,.51-.39.85-1.08.85s-1.08-.34-1.08-.85v-3.79h-5.26ZM338.61,97.92c3.24,0,5.6.96,5.6,3.69,0,2.53-2.36,3.67-5.6,3.67-3.41,0-5.62-1.13-5.62-3.67,0-2.73,2.22-3.69,5.62-3.69ZM338.61,103.34c2.01,0,3.36-.43,3.36-1.74,0-1.45-1.36-1.76-3.36-1.76-2.12,0-3.38.39-3.38,1.76s1.25,1.74,3.38,1.74Z"/>
    <path class="cls-4" d="M354.55,100.56c-.48,0-.82-.34-.82-1.01,0-.72.34-1.01.82-1.01h5.41c.94.02,1.31.72,1.31,1.16v4.11c0,.63-.46.99-.9.99h-4.57v2.01c0,.48.24.8.9.8,1.77,0,3.46-.12,5-.48.61-.14,1.25.1,1.25.97,0,.53-.19.87-.75,1.02-1.59.43-3.76.58-5.82.58-1.4,0-2.71-.58-2.71-2.25v-3.65c0-.61.29-1.02.89-1.02h4.59v-1.95c0-.27-.17-.29-.43-.29h-4.16ZM363.71,98.38c0-.51.34-.85,1.02-.85s1.02.34,1.02.85v12.72c0,.51-.34.85-1.02.85s-1.02-.34-1.02-.85v-12.72Z"/>
    <path class="cls-4" d="M373.91,109.27c0-.51.24-.97.84-.97,3.81,0,6.55-.39,8.53-1.01.9-.27,1.23.49,1.23,1.01,0,.48-.22.73-.53.85-2.25.87-6.83,1.19-9.1,1.16-.62-.02-.97-.43-.97-1.04ZM378.79,98.31c2.51,0,4.15,1.31,4.15,3.89s-1.64,3.91-4.15,3.91-4.2-1.25-4.2-3.91,1.71-3.89,4.2-3.89ZM378.79,100.19c-1.2,0-2.12.53-2.12,2.01s.92,2.03,2.12,2.03,2.1-.55,2.1-2.03-.9-2.01-2.1-2.01ZM384.89,98.38c0-.51.34-.85,1.02-.85s1.02.34,1.02.85v12.72c0,.51-.34.85-1.02.85s-1.02-.34-1.02-.85v-12.72Z"/>
    <path class="cls-4" d="M408.66,98.63c2.51,0,4.23,1.43,4.23,5.15s-1.72,5.17-4.23,5.17-4.28-1.31-4.28-5.17,1.79-5.15,4.28-5.15ZM408.66,100.61c-1.37,0-2.22.96-2.22,3.17s.85,3.19,2.22,3.19,2.2-.97,2.2-3.19-.84-3.17-2.2-3.17ZM414.94,98.38c0-.51.34-.85,1.02-.85s1.02.34,1.02.85v12.72c0,.51-.34.85-1.02.85s-1.02-.34-1.02-.85v-12.72Z"/>
    <path class="cls-4" d="M429.66,98.63c2.51,0,4.23,1.43,4.23,5.15s-1.72,5.17-4.23,5.17-4.28-1.31-4.28-5.17,1.79-5.15,4.28-5.15ZM429.66,100.61c-1.36,0-2.22.96-2.22,3.17s.85,3.19,2.22,3.19,2.2-.97,2.2-3.19-.84-3.17-2.2-3.17ZM435.6,98.38c0-.51.34-.85,1.02-.85s1.02.34,1.02.85v2.34h1.35c.53,0,.87.27.87.97s-.34.97-.87.97h-1.35v2.49h1.35c.53,0,.87.27.87.97s-.34.97-.87.97h-1.35v3.99c0,.51-.34.85-1.02.85s-1.02-.34-1.02-.85v-12.72Z"/>
    <path class="cls-4" d="M448.14,109.3c-.53,0-.94-.49-.94-1.09,0-.39.15-.65.44-.79,2.97-1.31,4.92-3.57,5.02-5.97.02-.2-.03-.36-.31-.36h-4.13c-.46,0-.87-.26-.87-.97s.41-1.04.87-1.04h5.02c1.31,0,1.74.89,1.69,1.91-.19,4.27-3.35,6.98-5.84,8.07-.34.15-.6.24-.95.24ZM457.29,98.38c0-.51.34-.85,1.02-.85s1.02.34,1.02.85v12.72c0,.51-.34.85-1.02.85s-1.02-.34-1.02-.85v-12.72Z"/>
  </g>
</svg>