<svg width="145" height="36" viewBox="0 0 145 36" fill="none" xmlns="http://www.w3.org/2000/svg">
<g clip-path="url(#clip0_187_1065)">
<path d="M70.4953 21.4391C70.3229 22.0157 70.022 22.5075 69.5927 22.9145C69.1634 23.3215 68.5008 23.525 67.6083 23.525C66.7665 23.525 66.131 23.3351 65.7016 22.9586C65.2723 22.5821 64.9714 22.0937 64.799 21.4968L61.8106 10.3379L58.8492 21.4968C58.6937 22.0937 58.3996 22.5821 57.9601 22.9586C57.5206 23.3351 56.8749 23.525 56.0163 23.525C55.5531 23.525 55.1576 23.4708 54.8331 23.3622C54.5051 23.2537 54.2313 23.1045 54.0082 22.9145C53.7851 22.7246 53.6059 22.5075 53.4673 22.2599C53.3287 22.0123 53.2171 21.7376 53.1326 21.4391L48.65 3.62904C48.5824 3.37127 48.5553 3.09654 48.5722 2.80824C48.5891 2.51994 48.6534 2.24521 48.7649 1.98744C48.8765 1.72966 49.0421 1.49902 49.2686 1.3023C49.4917 1.10219 49.7757 0.963128 50.1172 0.885118C50.7527 0.725705 51.3139 0.742664 51.8041 0.92921C52.2942 1.11915 52.6323 1.56008 52.8216 2.25538L56.0163 17.0807L59.6977 2.13328C59.7653 1.85516 59.9749 1.56347 60.3299 1.25482C60.6815 0.946169 61.2088 0.79354 61.9154 0.79354C62.5509 0.79354 63.031 0.952953 63.3589 1.27178C63.6834 1.5906 63.8829 1.88907 63.9505 2.1672L67.5812 17.0841L70.7996 2.28591C70.9889 1.57025 71.3438 1.10897 71.8678 0.898685C72.3918 0.688396 72.9969 0.69518 73.6832 0.912252C74.028 1.01061 74.3018 1.16663 74.5081 1.37353C74.7143 1.58382 74.8698 1.81106 74.9712 2.05866C75.076 2.30626 75.1267 2.57082 75.1267 2.84894C75.1267 3.12706 75.0929 3.38484 75.0219 3.62565L70.4885 21.4357L70.4953 21.4391Z" fill="white"/>
<path d="M82.9088 8.25537C83.852 8.25537 84.7445 8.408 85.5862 8.71665C86.428 9.0253 87.165 9.44587 87.8005 9.98516C88.4361 10.5211 88.9364 11.1621 89.3083 11.9083C89.6767 12.6545 89.8627 13.4549 89.8627 14.3096C89.8627 15.0049 89.7646 15.5612 89.5652 15.9818C89.3691 16.399 89.1088 16.7246 88.791 16.9518C88.4733 17.1824 88.1082 17.3283 87.6957 17.3995C87.2833 17.4707 86.8641 17.5047 86.4348 17.5047H79.9948C80.0117 18.3594 80.3261 19.0208 80.9346 19.4888C81.5431 19.9569 82.3882 20.1909 83.47 20.1909C84.1563 20.1909 84.8019 20.0756 85.4003 19.8484C86.0021 19.6211 86.499 19.4244 86.8945 19.265C87.3239 19.1056 87.7431 19.0377 88.1555 19.0547C88.5679 19.075 88.9026 19.3226 89.1595 19.8009C89.3657 20.1774 89.4435 20.5912 89.3928 21.0389C89.3421 21.4866 89.102 21.8495 88.6727 22.1276C88.1758 22.5041 87.4625 22.8399 86.5362 23.1282C85.6099 23.4165 84.5518 23.5623 83.3686 23.5623C82.1854 23.5623 81.178 23.4131 80.2517 23.1146C79.3254 22.8161 78.531 22.3922 77.8684 21.8461C77.2058 21.3 76.6885 20.6488 76.3099 19.8925C75.9313 19.1361 75.7183 18.3017 75.6676 17.386C75.6169 16.3515 75.6169 15.3373 75.6676 14.3436C75.6845 13.5295 75.8738 12.7528 76.2355 12.0168C76.5973 11.2808 77.0942 10.6364 77.7298 10.0767C78.3653 9.52049 79.1192 9.07617 79.9948 8.75057C80.8703 8.42496 81.8406 8.25876 82.9054 8.25876L82.9088 8.25537ZM84.9676 14.3096C85.2583 14.3096 85.4612 14.2893 85.5727 14.2486C85.6843 14.2079 85.7384 14.0994 85.7384 13.9196C85.7384 13.2819 85.4679 12.7528 84.927 12.3221C84.3861 11.8947 83.7033 11.681 82.8784 11.681C82.4829 11.681 82.1144 11.7319 81.7696 11.8303C81.4247 11.9286 81.1205 12.0745 80.8568 12.2644C80.5897 12.4544 80.3801 12.6816 80.2246 12.9495C80.0691 13.2175 79.9914 13.5126 79.9914 13.828V14.3062H84.9608L84.9676 14.3096Z" fill="white"/>
<path d="M92.0262 6.91232C92.0262 6.0169 92.2798 5.35551 92.7869 4.92815C93.294 4.50079 93.9059 4.28711 94.6293 4.28711C95.3527 4.28711 95.968 4.50079 96.4852 4.92815C96.9991 5.35551 97.256 6.0169 97.256 6.91232C97.256 7.80774 96.9991 8.46235 96.4852 8.87953C95.9714 9.29672 95.3527 9.50701 94.6293 9.50701C93.9059 9.50701 93.294 9.29672 92.7869 8.87953C92.2798 8.46235 92.0262 7.80435 92.0262 6.91232ZM92.0262 16.5483C92.0262 15.6529 92.2798 14.9915 92.7869 14.5641C93.294 14.1367 93.9059 13.9231 94.6293 13.9231C95.3527 13.9231 95.968 14.1367 96.4852 14.5641C96.9991 14.9915 97.256 15.6529 97.256 16.5483C97.256 17.4437 96.9991 18.0983 96.4852 18.5155C95.9714 18.9327 95.3527 19.143 94.6293 19.143C93.9059 19.143 93.294 18.9327 92.7869 18.5155C92.2798 18.0983 92.0262 17.4403 92.0262 16.5483Z" fill="white"/>
<path d="M112.884 21.3509C112.884 21.9886 112.695 22.4804 112.316 22.8263C111.938 23.1723 111.424 23.3487 110.772 23.3487C109.879 23.3487 109.26 23.0909 108.916 22.572C108.608 22.789 108.277 22.9654 107.925 23.0943C107.574 23.2232 107.215 23.3215 106.857 23.3928C106.495 23.464 106.147 23.5081 105.812 23.5284C105.478 23.5488 105.18 23.559 104.923 23.559C103.892 23.559 103.02 23.4335 102.31 23.1859C101.597 22.9383 101.019 22.6093 100.572 22.2023C100.126 21.7952 99.805 21.3374 99.6055 20.8286C99.4094 20.3232 99.3012 19.8009 99.2843 19.2616C99.1829 17.5115 99.734 16.209 100.944 15.3543C102.154 14.4996 103.96 14.0722 106.367 14.0722H108.53C108.496 13.4753 108.223 12.9326 107.705 12.4476C107.192 11.9592 106.444 11.7184 105.464 11.7184C104.761 11.7184 104.203 11.7794 103.791 11.8981C103.378 12.0168 103.054 12.1356 102.81 12.2577C102.347 12.4781 101.898 12.5765 101.458 12.5561C101.019 12.5358 100.691 12.2373 100.468 11.6607C100.278 11.1452 100.251 10.6805 100.39 10.2735C100.528 9.86648 100.802 9.54426 101.215 9.30345C101.745 8.98462 102.411 8.73024 103.209 8.5437C104.007 8.35376 104.795 8.25879 105.565 8.25879C106.853 8.25879 107.956 8.42838 108.875 8.76416C109.795 9.10333 110.548 9.55444 111.14 10.1209C111.732 10.6873 112.171 11.3453 112.455 12.0881C112.739 12.8343 112.881 13.6042 112.881 14.4012V21.3509H112.884ZM108.561 17.2944H106.296C105.231 17.2944 104.514 17.4199 104.146 17.6675C103.777 17.9151 103.591 18.2882 103.591 18.7868C103.591 19.204 103.74 19.5465 104.041 19.8145C104.342 20.0824 104.774 20.2181 105.342 20.2181C105.755 20.2181 106.154 20.157 106.539 20.0383C106.924 19.9196 107.269 19.7534 107.57 19.5465C107.871 19.3362 108.111 19.0954 108.29 18.8173C108.469 18.5392 108.561 18.2305 108.561 17.8913V17.2944Z" fill="white"/>
<path d="M115.254 11.0874C115.065 10.6092 115.051 10.114 115.217 9.59508C115.379 9.07953 115.788 8.67931 116.441 8.40118C117.009 8.16376 117.543 8.15359 118.05 8.37066C118.557 8.59112 118.929 9.01848 119.169 9.65274L122.31 17.7963C122.55 17.1383 122.806 16.443 123.08 15.707C123.354 14.971 123.638 14.2316 123.929 13.4854C124.22 12.7392 124.507 11.9998 124.791 11.2638C125.075 10.5278 125.335 9.84267 125.575 9.20503C125.626 9.06596 125.717 8.92012 125.846 8.77088C125.974 8.62165 126.136 8.49276 126.336 8.38422C126.532 8.27569 126.769 8.21124 127.046 8.19089C127.32 8.17054 127.637 8.22142 127.999 8.34013C128.584 8.54024 129 8.90655 129.246 9.44245C129.497 9.97834 129.507 10.538 129.287 11.1146L125.115 21.5544C125.048 21.7545 124.936 21.9682 124.781 22.1954C124.625 22.4227 124.433 22.6363 124.203 22.8365C123.969 23.0366 123.696 23.1994 123.378 23.3283C123.06 23.4571 122.705 23.5216 122.31 23.5216C121.863 23.5216 121.478 23.4504 121.15 23.3113C120.822 23.1722 120.548 23.0027 120.325 22.8025C120.102 22.6024 119.916 22.3887 119.771 22.1615C119.625 21.9343 119.517 21.7274 119.45 21.551L115.251 11.0807L115.254 11.0874Z" fill="white"/>
<path d="M138.046 8.25537C138.989 8.25537 139.882 8.408 140.724 8.71665C141.565 9.0253 142.302 9.44587 142.938 9.98516C143.573 10.5211 144.074 11.1621 144.446 11.9083C144.814 12.6545 145 13.4549 145 14.3096C145 15.0049 144.902 15.5612 144.703 15.9818C144.506 16.399 144.246 16.7246 143.928 16.9518C143.611 17.1824 143.245 17.3283 142.833 17.3995C142.421 17.4707 142.001 17.5047 141.572 17.5047H135.135C135.152 18.3594 135.467 19.0208 136.075 19.4888C136.684 19.9569 137.529 20.1909 138.611 20.1909C139.297 20.1909 139.943 20.0756 140.541 19.8484C141.143 19.6211 141.64 19.4244 142.035 19.265C142.465 19.1056 142.884 19.0377 143.296 19.0547C143.709 19.075 144.043 19.3226 144.3 19.8009C144.506 20.1774 144.584 20.5912 144.533 21.0389C144.483 21.4866 144.243 21.8495 143.813 22.1276C143.316 22.5041 142.603 22.8399 141.677 23.1282C140.751 23.4165 139.692 23.5623 138.509 23.5623C137.326 23.5623 136.322 23.4131 135.392 23.1146C134.466 22.8161 133.672 22.3922 133.009 21.8461C132.346 21.3 131.829 20.6488 131.451 19.8925C131.072 19.1361 130.859 18.3017 130.808 17.386C130.758 16.3515 130.758 15.3373 130.808 14.3436C130.825 13.5295 131.015 12.7528 131.376 12.0168C131.738 11.2808 132.235 10.6364 132.87 10.0767C133.506 9.52049 134.26 9.07617 135.135 8.75057C136.011 8.42496 136.981 8.25876 138.046 8.25876V8.25537ZM140.105 14.3096C140.396 14.3096 140.598 14.2893 140.71 14.2486C140.822 14.2079 140.876 14.0994 140.876 13.9196C140.876 13.2819 140.605 12.7528 140.064 12.3221C139.523 11.8947 138.841 11.681 138.016 11.681C137.62 11.681 137.252 11.7319 136.907 11.8303C136.562 11.9286 136.258 12.0745 135.994 12.2644C135.727 12.4544 135.517 12.6816 135.362 12.9495C135.206 13.2175 135.129 13.5126 135.129 13.828V14.3062H140.098L140.105 14.3096Z" fill="white"/>
<path d="M51.7263 32.4012C51.9325 32.3368 52.1354 32.4419 52.1354 32.6895C52.1354 32.8591 52.0711 32.9575 51.8818 33.0253C51.3747 33.2051 50.462 33.2933 49.8737 33.2933C49.4174 33.2933 49.0759 33.144 49.0759 32.6793V31.031C49.0759 30.8241 49.2314 30.685 49.4681 30.685H51.4592C51.6486 30.685 51.7601 30.8071 51.7601 31.0106C51.7601 31.2243 51.6519 31.3396 51.4592 31.3396H49.796V32.3944C49.796 32.5403 49.8433 32.6319 50.0394 32.6319C50.6614 32.6319 51.2463 32.5505 51.7229 32.4046L51.7263 32.4012ZM51.3849 33.5375C52.4159 33.5375 53.0819 33.9648 53.0819 34.694C53.0819 35.4233 52.4126 35.8676 51.3849 35.8676C50.2997 35.8676 49.6844 35.4402 49.6844 34.694C49.6844 33.9479 50.3031 33.5375 51.3849 33.5375ZM51.3849 35.2232C51.9663 35.2232 52.3551 35.0773 52.3551 34.6974C52.3551 34.3176 51.9697 34.1717 51.3849 34.1717C50.8 34.1717 50.4146 34.321 50.4146 34.6974C50.4146 35.0739 50.8068 35.2232 51.3849 35.2232ZM52.3889 30.7766C52.3889 30.6036 52.5038 30.4883 52.7337 30.4883C52.9636 30.4883 53.0785 30.6036 53.0785 30.7766V31.577H53.5349C53.7141 31.577 53.829 31.6754 53.829 31.9128C53.829 32.1502 53.7141 32.2486 53.5349 32.2486H53.0785V33.1508C53.0785 33.3238 52.9636 33.4391 52.7337 33.4391C52.5038 33.4391 52.3889 33.3238 52.3889 33.1508V30.7766Z" fill="white"/>
<path d="M56.4726 33.646C56.2664 33.646 56.1042 33.473 56.1042 33.2831C56.1042 33.2017 56.1278 33.1033 56.2123 33.0287C56.9797 32.3809 57.355 31.6347 57.5172 31.0649C57.5679 30.8783 57.6626 30.7393 57.8621 30.7393C58.1663 30.7393 58.3117 30.9122 58.2542 31.1632C58.0345 32.0824 57.4699 32.9473 56.7431 33.5476C56.6383 33.6358 56.5639 33.646 56.4726 33.646ZM57.0271 34.0394C57.0271 33.8665 57.1657 33.7511 57.3955 33.7511C57.6254 33.7511 57.764 33.8665 57.764 34.0394V34.9009C57.764 35.0095 57.8215 35.0502 57.9432 35.0502H60.2149C60.3941 35.0502 60.5091 35.1553 60.5091 35.3927C60.5091 35.6302 60.3941 35.7353 60.2149 35.7353H57.7235C57.3178 35.7353 57.0237 35.5793 57.0237 35.1214V34.0394H57.0271ZM57.9702 32.6115C57.9229 32.5539 57.8959 32.4826 57.8959 32.3978C57.8959 32.2181 58.0514 32.0451 58.2474 32.0451C58.3218 32.0451 58.3962 32.0553 58.4739 32.1129C58.7004 32.2995 59.0115 32.6624 59.1771 32.9066C59.2515 33.0117 59.2853 33.0728 59.2853 33.161C59.2853 33.4221 59.0588 33.5544 58.8999 33.5544C58.741 33.5544 58.6565 33.4798 58.572 33.3747L57.9736 32.6115H57.9702ZM59.7214 30.7766C59.7214 30.6036 59.8363 30.4883 60.0662 30.4883C60.2961 30.4883 60.411 30.6036 60.411 30.7766V33.9241C60.411 34.0971 60.2961 34.2124 60.0662 34.2124C59.8363 34.2124 59.7214 34.0971 59.7214 33.9241V30.7766Z" fill="white"/>
<path d="M63.1696 34.4702C63.1696 34.2972 63.2507 34.1412 63.4536 34.1412C64.7416 34.1412 65.6678 34.0089 66.3372 33.7986C66.6414 33.7071 66.753 33.9648 66.753 34.1412C66.753 34.304 66.6786 34.3888 66.5738 34.4295C65.8132 34.7246 64.2649 34.8331 63.4975 34.8229C63.2879 34.8162 63.1696 34.6771 63.1696 34.4702ZM64.8193 30.7528C65.6678 30.7528 66.2223 31.1972 66.2223 32.0722C66.2223 32.9473 65.6678 33.3984 64.8193 33.3984C63.9708 33.3984 63.3995 32.9744 63.3995 32.0722C63.3995 31.17 63.9775 30.7528 64.8193 30.7528ZM64.8193 31.3905C64.4136 31.3905 64.1026 31.5702 64.1026 32.0722C64.1026 32.5742 64.4136 32.7608 64.8193 32.7608C65.225 32.7608 65.5292 32.5742 65.5292 32.0722C65.5292 31.5702 65.225 31.3905 64.8193 31.3905ZM66.8781 30.7766C66.8781 30.6036 66.993 30.4883 67.2229 30.4883C67.4528 30.4883 67.5677 30.6036 67.5677 30.7766V35.0909C67.5677 35.2639 67.4528 35.3792 67.2229 35.3792C66.993 35.3792 66.8781 35.2639 66.8781 35.0909V30.7766Z" fill="white"/>
<path d="M73.9638 30.9089C73.9638 30.7359 74.0922 30.6206 74.3221 30.6206H77.2294C77.4086 30.6206 77.5235 30.702 77.5235 30.9394C77.5235 31.1769 77.4086 31.2515 77.2294 31.2515H74.6669V31.6754C74.6669 31.7975 74.7177 31.8552 74.8732 31.8552H77.2328C77.412 31.8552 77.5269 31.9366 77.5269 32.174C77.5269 32.4114 77.412 32.4861 77.2328 32.4861H76.1206V32.9304H77.8177C77.9968 32.9304 78.1118 33.0389 78.1118 33.256C78.1118 33.4731 77.9968 33.5748 77.8177 33.5748H73.5987C73.4195 33.5748 73.3046 33.4697 73.3046 33.256C73.3046 33.0423 73.4195 32.9304 73.5987 32.9304H75.4276V32.4861H74.7109C74.2883 32.4861 73.9604 32.3707 73.9604 31.9196V30.9123L73.9638 30.9089ZM75.7352 33.9242C76.9049 33.9242 77.581 34.1718 77.581 34.8908C77.581 35.5556 76.9049 35.8642 75.7352 35.8642C74.5013 35.8642 73.8826 35.5624 73.8826 34.8908C73.8826 34.1684 74.5114 33.9242 75.7352 33.9242ZM75.7352 35.2232C76.5094 35.2232 76.8609 35.1418 76.8609 34.8942C76.8609 34.6466 76.5161 34.5516 75.7352 34.5516C74.9543 34.5516 74.6027 34.633 74.6027 34.8942C74.6027 35.1554 74.9374 35.2232 75.7352 35.2232Z" fill="white"/>
<path d="M82.0163 30.8614C82.8649 30.8614 83.4463 31.3464 83.4463 32.6081C83.4463 33.8699 82.8649 34.3617 82.0163 34.3617C81.1678 34.3617 80.5695 33.9173 80.5695 32.6081C80.5695 31.2989 81.1746 30.8614 82.0163 30.8614ZM82.0163 31.5329C81.5566 31.5329 81.2659 31.8585 81.2659 32.6081C81.2659 33.3577 81.5532 33.6901 82.0163 33.6901C82.4795 33.6901 82.7601 33.3611 82.7601 32.6081C82.7601 31.8552 82.4761 31.5329 82.0163 31.5329ZM84.0244 30.7766C84.0244 30.6036 84.1394 30.4883 84.3692 30.4883C84.5991 30.4883 84.714 30.6036 84.714 30.7766V32.3063H85.1704C85.3496 32.3063 85.4645 32.4046 85.4645 32.642C85.4645 32.8795 85.3496 32.9778 85.1704 32.9778H84.714V35.0909C84.714 35.2639 84.5991 35.3792 84.3692 35.3792C84.1394 35.3792 84.0244 35.2639 84.0244 35.0909V30.7766Z" fill="white"/>
<path d="M88.2569 31.516C88.0946 31.516 87.9797 31.4007 87.9797 31.1734C87.9797 30.9292 88.0946 30.8308 88.2569 30.8308H90.0858C90.4036 30.8376 90.5287 31.0751 90.5287 31.2243V32.6183C90.5287 32.832 90.3732 32.9541 90.2244 32.9541H88.6795V33.6358C88.6795 33.7986 88.7606 33.9072 88.9837 33.9072C89.5821 33.9072 90.1534 33.8665 90.674 33.7444C90.8802 33.6969 91.0966 33.7783 91.0966 34.0734C91.0966 34.2531 91.0324 34.3684 90.8431 34.4193C90.3055 34.5652 89.5719 34.616 88.8755 34.616C88.4023 34.616 87.9594 34.4193 87.9594 33.8529V32.6149C87.9594 32.408 88.0574 32.2689 88.2603 32.2689H89.812V31.6076C89.812 31.516 89.7545 31.5092 89.6666 31.5092H88.2603L88.2569 31.516ZM91.3569 30.7766C91.3569 30.6036 91.4718 30.4883 91.7017 30.4883C91.9316 30.4883 92.0465 30.6036 92.0465 30.7766V35.0909C92.0465 35.2639 91.9316 35.3792 91.7017 35.3792C91.4718 35.3792 91.3569 35.2639 91.3569 35.0909V30.7766Z" fill="white"/>
<path d="M95.3865 34.6128C95.5725 34.6128 95.6976 34.7112 95.755 34.84C95.941 35.2097 95.7821 35.8711 95.1431 35.9966C95.062 36.0136 94.9707 35.9559 94.9707 35.8236C94.9707 35.7321 95.0214 35.7015 95.0789 35.6846C95.3054 35.6201 95.3798 35.4539 95.2682 35.4302C95.0891 35.3793 94.9741 35.2165 94.9741 35.03C94.9741 34.8027 95.1296 34.6128 95.3832 34.6128H95.3865Z" fill="white"/>
<path d="M101.668 34.2498C101.489 34.2498 101.374 34.1209 101.374 33.9072C101.374 33.6935 101.489 33.5646 101.668 33.5646H105.887C106.066 33.5646 106.181 33.6935 106.181 33.9072C106.181 34.1209 106.066 34.2498 105.887 34.2498H104.173V35.5352C104.173 35.7082 104.041 35.8235 103.808 35.8235C103.574 35.8235 103.442 35.7082 103.442 35.5352V34.2498H101.664H101.668ZM103.781 30.6206C104.876 30.6206 105.674 30.9462 105.674 31.8722C105.674 32.7303 104.876 33.1169 103.781 33.1169C102.628 33.1169 101.881 32.7337 101.881 31.8722C101.881 30.9462 102.631 30.6206 103.781 30.6206ZM103.781 32.4623C104.46 32.4623 104.916 32.3165 104.916 31.8722C104.916 31.3804 104.457 31.2752 103.781 31.2752C103.064 31.2752 102.638 31.4075 102.638 31.8722C102.638 32.3368 103.06 32.4623 103.781 32.4623Z" fill="white"/>
<path d="M109.166 31.516C109.004 31.516 108.889 31.4007 108.889 31.1734C108.889 30.9292 109.004 30.8308 109.166 30.8308H110.995C111.312 30.8376 111.438 31.0751 111.438 31.2243V32.6183C111.438 32.832 111.282 32.9541 111.133 32.9541H109.588V33.6358C109.588 33.7986 109.67 33.9072 109.893 33.9072C110.491 33.9072 111.062 33.8665 111.583 33.7444C111.789 33.6969 112.006 33.7783 112.006 34.0734C112.006 34.2531 111.941 34.3684 111.752 34.4193C111.214 34.5652 110.481 34.616 109.784 34.616C109.311 34.616 108.868 34.4193 108.868 33.8529V32.6149C108.868 32.408 108.966 32.2689 109.169 32.2689H110.721V31.6076C110.721 31.516 110.663 31.5092 110.576 31.5092H109.169L109.166 31.516ZM112.266 30.7766C112.266 30.6036 112.381 30.4883 112.611 30.4883C112.84 30.4883 112.955 30.6036 112.955 30.7766V35.0909C112.955 35.2639 112.84 35.3792 112.611 35.3792C112.381 35.3792 112.266 35.2639 112.266 35.0909V30.7766Z" fill="white"/>
<path d="M115.714 34.4702C115.714 34.2972 115.795 34.1412 115.998 34.1412C117.286 34.1412 118.212 34.0089 118.882 33.7986C119.186 33.7071 119.297 33.9648 119.297 34.1412C119.297 34.304 119.223 34.3888 119.118 34.4295C118.358 34.7246 116.809 34.8331 116.042 34.8229C115.832 34.8162 115.714 34.6771 115.714 34.4702ZM117.364 30.7528C118.212 30.7528 118.767 31.1972 118.767 32.0722C118.767 32.9473 118.212 33.3984 117.364 33.3984C116.515 33.3984 115.944 32.9744 115.944 32.0722C115.944 31.17 116.522 30.7528 117.364 30.7528ZM117.364 31.3905C116.958 31.3905 116.647 31.5702 116.647 32.0722C116.647 32.5742 116.958 32.7608 117.364 32.7608C117.769 32.7608 118.074 32.5742 118.074 32.0722C118.074 31.5702 117.769 31.3905 117.364 31.3905ZM119.422 30.7766C119.422 30.6036 119.537 30.4883 119.767 30.4883C119.997 30.4883 120.112 30.6036 120.112 30.7766V35.0909C120.112 35.2639 119.997 35.3792 119.767 35.3792C119.537 35.3792 119.422 35.2639 119.422 35.0909V30.7766Z" fill="white"/>
<path d="M127.462 30.8614C128.31 30.8614 128.892 31.3464 128.892 32.6081C128.892 33.8699 128.31 34.3617 127.462 34.3617C126.613 34.3617 126.015 33.9173 126.015 32.6081C126.015 31.2989 126.62 30.8614 127.462 30.8614ZM127.462 31.5329C126.998 31.5329 126.711 31.8585 126.711 32.6081C126.711 33.3577 126.998 33.6901 127.462 33.6901C127.925 33.6901 128.205 33.3611 128.205 32.6081C128.205 31.8552 127.921 31.5329 127.462 31.5329ZM129.585 30.7766C129.585 30.6036 129.699 30.4883 129.929 30.4883C130.159 30.4883 130.274 30.6036 130.274 30.7766V35.0909C130.274 35.2639 130.159 35.3792 129.929 35.3792C129.699 35.3792 129.585 35.2639 129.585 35.0909V30.7766Z" fill="white"/>
<path d="M134.561 30.8614C135.409 30.8614 135.991 31.3464 135.991 32.6081C135.991 33.8699 135.409 34.3617 134.561 34.3617C133.712 34.3617 133.114 33.9173 133.114 32.6081C133.114 31.2989 133.719 30.8614 134.561 30.8614ZM134.561 31.5329C134.101 31.5329 133.81 31.8585 133.81 32.6081C133.81 33.3577 134.098 33.6901 134.561 33.6901C135.024 33.6901 135.304 33.3611 135.304 32.6081C135.304 31.8552 135.021 31.5329 134.561 31.5329ZM136.569 30.7766C136.569 30.6036 136.684 30.4883 136.914 30.4883C137.144 30.4883 137.258 30.6036 137.258 30.7766V31.5702H137.715C137.894 31.5702 138.009 31.6618 138.009 31.8992C138.009 32.1367 137.894 32.2282 137.715 32.2282H137.258V33.0728H137.715C137.894 33.0728 138.009 33.1644 138.009 33.4018C138.009 33.6392 137.894 33.7308 137.715 33.7308H137.258V35.0841C137.258 35.2571 137.144 35.3724 136.914 35.3724C136.684 35.3724 136.569 35.2571 136.569 35.0841V30.7698V30.7766Z" fill="white"/>
<path d="M140.808 34.4804C140.629 34.4804 140.49 34.3142 140.49 34.1107C140.49 33.9784 140.541 33.8902 140.639 33.8427C141.643 33.3984 142.302 32.6319 142.336 31.8178C142.343 31.75 142.326 31.6957 142.231 31.6957H140.835C140.68 31.6957 140.541 31.6076 140.541 31.3667C140.541 31.1259 140.68 31.014 140.835 31.014H142.532C142.975 31.014 143.12 31.3159 143.103 31.6618C143.039 33.1101 141.971 34.0293 141.129 34.399C141.014 34.4498 140.926 34.4804 140.808 34.4804ZM143.901 30.7766C143.901 30.6036 144.016 30.4883 144.246 30.4883C144.476 30.4883 144.591 30.6036 144.591 30.7766V35.0909C144.591 35.2639 144.476 35.3792 144.246 35.3792C144.016 35.3792 143.901 35.2639 143.901 35.0909V30.7766Z" fill="white"/>
<path d="M1.36914 23.359C0.574699 23.5116 0 24.2069 0 25.0209V28.7145C0 29.7727 0.960086 30.5732 2.00131 30.3731L21.6019 26.6354L23.512 19.1362L1.36914 23.359Z" fill="#9E9E9E"/>
<path d="M3.95865 33.1137L12.1025 2.7745C12.3019 2.0351 12.9679 1.52295 13.7285 1.52295H17.3491C18.458 1.52295 19.2659 2.57778 18.9752 3.65297L10.8314 33.9921C10.6319 34.7315 9.96595 35.2437 9.20532 35.2437H5.58471C4.47588 35.2437 3.66792 34.1889 3.95865 33.1137Z" fill="#EAEAEA"/>
<path d="M37.6969 16.4332L30.9864 17.7119L29.0764 25.2111L38.3291 23.4474C39.1235 23.2948 39.6982 22.5994 39.6982 21.7854V18.0918C39.6982 17.0302 38.7381 16.2331 37.6969 16.4299V16.4332Z" fill="#9E9E9E"/>
<path d="M19.9083 33.2731C19.6209 34.406 20.4255 35.5185 21.5343 35.5185H25.1549C25.9156 35.5185 26.5849 34.9792 26.781 34.1991L29.073 25.2109L21.5986 26.6355L19.9083 33.2731Z" fill="#D8D8D8"/>
<path d="M23.512 19.1364L21.5985 26.639L29.0764 25.2111L30.9864 17.7119L23.512 19.1364Z" fill="#9E9E9E"/>
<path d="M38.3257 11.4303L2.00131 18.3562C0.963466 18.553 0 17.7559 0 16.6943V13.0007C0 12.19 0.574699 11.4913 1.36914 11.3387L37.6969 4.41277C38.7347 4.21605 39.6982 5.01311 39.6982 6.07472V9.76834C39.6982 10.579 39.1235 11.2777 38.3291 11.4303H38.3257Z" fill="white"/>
<path d="M34.9282 2.24534C35.2156 1.11249 34.411 0 33.3021 0H29.6815C28.9209 0 28.2515 0.539288 28.0555 1.31939L23.5154 19.1396L30.9898 17.7151L34.9316 2.24873L34.9282 2.24534Z" fill="#D8D8D8"/>
</g>
<defs>
<clipPath id="clip0_187_1065">
<rect width="145" height="36" fill="white"/>
</clipPath>
</defs>
</svg>
