<?xml version="1.0" encoding="UTF-8"?>
<svg id="Layer_1" data-name="Layer 1" xmlns="http://www.w3.org/2000/svg" viewBox="0 0 500 500">
  <defs>
    <style>
      .cls-1 {
        fill: #256fef;
      }

      .cls-2 {
        fill: #a8c5f9;
      }

      .cls-3 {
        fill: #d3e2fc;
      }

      .cls-4 {
        fill: #0f2c60;
      }
    </style>
  </defs>
  <path class="cls-4" d="M58.04,292.28c-8.26,1.57-14.24,8.79-14.24,17.2v38.25c0,10.98,9.99,19.25,20.78,17.2l203.61-38.69,19.86-77.66-230,43.71Z"/>
  <path class="cls-2" d="M84.92,393.3L169.54,79.17c2.06-7.64,8.99-12.95,16.9-12.95h37.63c11.52,0,19.9,10.94,16.9,22.06l-84.61,314.14c-2.06,7.64-8.99,12.95-16.9,12.95h-37.63c-11.52,0-19.9-10.94-16.9-22.06Z"/>
  <path class="cls-4" d="M435.42,220.57l-69.71,13.25-19.86,77.66,96.11-18.26c8.26-1.57,14.24-8.79,14.24-17.2v-38.25c0-10.98-9.99-19.25-20.78-17.2Z"/>
  <path class="cls-1" d="M250.61,394.96c-3,11.72,5.38,23.24,16.9,23.24h37.63c7.92,0,14.85-5.59,16.9-13.64l23.8-93.07-77.66,14.76-17.57,68.72Z"/>
  <polygon class="cls-4" points="288.04 248.57 268.19 326.24 345.85 311.48 365.71 233.82 288.04 248.57"/>
  <path class="cls-3" d="M441.96,168.76L64.58,240.48c-10.79,2.05-20.78-6.22-20.78-17.2v-38.25c0-8.41,5.98-15.63,14.24-17.2l377.38-71.72c10.79-2.05,20.78,6.22,20.78,17.2v38.25c0,8.41-5.98,15.63-14.24,17.2Z"/>
  <path class="cls-1" d="M406.66,73.66c3-11.72-5.38-23.24-16.9-23.24h-37.63c-7.92,0-14.85,5.59-16.9,13.64l-47.18,184.51,77.66-14.76,40.95-160.16Z"/>
</svg>