<?xml version="1.0" encoding="UTF-8"?>
<svg id="Layer_1" data-name="Layer 1" xmlns="http://www.w3.org/2000/svg" viewBox="0 0 500 500">
  <defs>
    <style>
      .cls-1 {
        fill: #256fef;
      }

      .cls-2 {
        fill: #a8c5f9;
      }

      .cls-3 {
        fill: #d3e2fc;
      }

      .cls-4 {
        fill: #0f2c60;
      }
    </style>
  </defs>
  <g>
    <path class="cls-4" d="M161.82,387.38c-.6,2.01-1.65,3.72-3.15,5.14-1.5,1.42-3.81,2.13-6.92,2.13-2.94,0-5.15-.66-6.65-1.97-1.5-1.32-2.55-3.01-3.15-5.08l-10.43-38.81-10.34,38.81c-.54,2.08-1.57,3.77-3.1,5.08-1.53,1.31-3.79,1.97-6.79,1.97-1.62,0-3-.19-4.13-.57-1.14-.38-2.1-.9-2.88-1.56-.78-.66-1.41-1.42-1.89-2.28-.48-.87-.87-1.82-1.17-2.85l-15.64-61.95c-.24-.9-.33-1.85-.27-2.85.06-1,.28-1.95.67-2.85.39-.9.97-1.69,1.75-2.39.78-.69,1.77-1.18,2.97-1.45,2.22-.55,4.18-.5,5.89.16,1.71.66,2.89,2.2,3.55,4.62l11.14,51.57,12.85-51.99c.24-.97.97-1.99,2.2-3.06,1.23-1.07,3.07-1.61,5.53-1.61,2.22,0,3.89.55,5.03,1.66,1.14,1.11,1.83,2.14,2.07,3.11l12.67,51.88,11.23-51.47c.66-2.49,1.9-4.1,3.73-4.83,1.83-.73,3.94-.71,6.34.05,1.2.35,2.16.88,2.88,1.61.72.73,1.26,1.52,1.62,2.39.36.87.54,1.78.54,2.75s-.12,1.87-.36,2.7l-15.82,61.95Z"/>
    <path class="cls-4" d="M205.14,341.51c3.29,0,6.41.54,9.35,1.61,2.93,1.07,5.51,2.54,7.73,4.41,2.22,1.87,3.97,4.1,5.26,6.69,1.29,2.59,1.93,5.38,1.93,8.35,0,2.42-.35,4.36-1.03,5.81-.69,1.45-1.59,2.58-2.7,3.37-1.11.8-2.38,1.32-3.82,1.56-1.44.24-2.91.36-4.4.36h-22.47c.06,2.98,1.15,5.28,3.28,6.9,2.13,1.63,5.08,2.44,8.85,2.44,2.4,0,4.64-.4,6.74-1.19,2.1-.79,3.83-1.47,5.21-2.02,1.5-.55,2.97-.79,4.4-.73,1.44.07,2.61.93,3.51,2.59.72,1.32.99,2.75.81,4.31-.18,1.56-1.02,2.82-2.52,3.79-1.74,1.31-4.22,2.47-7.46,3.48-3.24,1-6.92,1.5-11.05,1.5s-7.64-.52-10.88-1.56c-3.24-1.04-6.01-2.51-8.31-4.41-2.31-1.9-4.12-4.17-5.44-6.8-1.32-2.63-2.07-5.53-2.25-8.72-.18-3.6-.18-7.12,0-10.58.06-2.84.72-5.53,1.98-8.09,1.26-2.56,3-4.81,5.21-6.75,2.22-1.94,4.85-3.48,7.91-4.62s6.44-1.71,10.16-1.71ZM212.33,362.58c1.02,0,1.72-.07,2.11-.21.39-.14.58-.52.58-1.14,0-2.21-.94-4.06-2.83-5.55-1.89-1.49-4.27-2.23-7.15-2.23-1.38,0-2.67.17-3.86.52-1.2.35-2.26.85-3.19,1.5-.93.66-1.66,1.45-2.2,2.39-.54.93-.81,1.96-.81,3.06v1.66h17.35Z"/>
    <path class="cls-4" d="M236.96,336.84c0-3.11.88-5.41,2.65-6.9,1.77-1.49,3.91-2.23,6.43-2.23s4.67.74,6.47,2.23c1.8,1.49,2.7,3.79,2.7,6.9s-.9,5.4-2.7,6.85c-1.8,1.45-3.95,2.18-6.47,2.18s-4.66-.73-6.43-2.18c-1.77-1.45-2.65-3.74-2.65-6.85ZM236.96,370.36c0-3.11.88-5.41,2.65-6.9,1.77-1.49,3.91-2.23,6.43-2.23s4.67.74,6.47,2.23c1.8,1.49,2.7,3.79,2.7,6.9s-.9,5.4-2.7,6.85c-1.8,1.45-3.95,2.18-6.47,2.18s-4.66-.73-6.43-2.18c-1.77-1.45-2.65-3.74-2.65-6.85Z"/>
    <path class="cls-4" d="M309.76,387.07c0,2.21-.66,3.92-1.98,5.14-1.32,1.21-3.12,1.82-5.39,1.82-3.12,0-5.27-.9-6.47-2.7-1.08.76-2.23,1.37-3.46,1.82-1.23.45-2.47.79-3.73,1.04-1.26.24-2.47.4-3.64.47-1.17.07-2.2.1-3.1.1-3.59,0-6.64-.43-9.12-1.3-2.49-.87-4.51-2.01-6.07-3.42-1.56-1.42-2.68-3.01-3.37-4.77-.69-1.76-1.06-3.58-1.12-5.45-.36-6.09,1.57-10.62,5.8-13.59,4.22-2.97,10.53-4.46,18.92-4.46h7.55c-.12-2.08-1.08-3.96-2.88-5.66-1.8-1.69-4.4-2.54-7.82-2.54-2.46,0-4.4.21-5.84.62-1.44.42-2.58.83-3.42,1.25-1.62.76-3.19,1.11-4.72,1.04-1.53-.07-2.68-1.11-3.46-3.11-.66-1.8-.75-3.41-.27-4.83.48-1.42,1.44-2.54,2.88-3.37,1.86-1.11,4.18-1.99,6.97-2.65,2.79-.66,5.53-.99,8.22-.99,4.49,0,8.34.59,11.55,1.76,3.21,1.18,5.84,2.75,7.91,4.72s3.59,4.25,4.58,6.85c.99,2.59,1.48,5.28,1.48,8.04v24.18ZM294.66,372.95h-7.91c-3.72,0-6.22.43-7.5,1.3-1.29.87-1.93,2.16-1.93,3.89,0,1.45.52,2.65,1.57,3.58,1.05.93,2.56,1.4,4.54,1.4,1.44,0,2.83-.21,4.18-.62,1.35-.42,2.55-.99,3.59-1.71,1.05-.73,1.89-1.57,2.52-2.54.63-.97.94-2.04.94-3.22v-2.08Z"/>
    <path class="cls-4" d="M318.03,351.37c-.66-1.66-.7-3.39-.13-5.19.57-1.8,1.99-3.18,4.27-4.15,1.98-.83,3.85-.86,5.62-.1,1.77.76,3.07,2.25,3.91,4.46l10.97,28.33c.84-2.28,1.74-4.7,2.7-7.26.96-2.56,1.95-5.14,2.97-7.73,1.02-2.59,2.02-5.17,3.01-7.73.99-2.56,1.9-4.95,2.74-7.16.18-.48.49-.99.94-1.5s1.02-.97,1.71-1.35c.69-.38,1.51-.61,2.47-.67.96-.07,2.07.1,3.33.52,2.04.69,3.49,1.97,4.36,3.84.87,1.87.91,3.81.14,5.81l-14.56,36.32c-.24.69-.63,1.44-1.17,2.23-.54.79-1.21,1.54-2.02,2.23-.81.69-1.77,1.26-2.88,1.71-1.11.45-2.35.67-3.73.67-1.56,0-2.91-.24-4.04-.73-1.14-.49-2.1-1.07-2.88-1.76-.78-.69-1.42-1.44-1.93-2.23-.51-.8-.88-1.5-1.12-2.13l-14.65-36.42Z"/>
    <path class="cls-4" d="M397.57,341.51c3.29,0,6.41.54,9.35,1.61,2.94,1.07,5.51,2.54,7.73,4.41,2.22,1.87,3.97,4.1,5.26,6.69,1.29,2.59,1.93,5.38,1.93,8.35,0,2.42-.35,4.36-1.03,5.81-.69,1.45-1.59,2.58-2.7,3.37-1.11.8-2.38,1.32-3.82,1.56-1.44.24-2.91.36-4.4.36h-22.47c.06,2.98,1.15,5.28,3.28,6.9,2.13,1.63,5.08,2.44,8.85,2.44,2.4,0,4.64-.4,6.74-1.19,2.1-.79,3.83-1.47,5.21-2.02,1.5-.55,2.97-.79,4.4-.73,1.44.07,2.61.93,3.5,2.59.72,1.32.99,2.75.81,4.31s-1.02,2.82-2.52,3.79c-1.74,1.31-4.22,2.47-7.46,3.48-3.24,1-6.92,1.5-11.06,1.5s-7.64-.52-10.88-1.56c-3.24-1.04-6.01-2.51-8.31-4.41-2.31-1.9-4.12-4.17-5.44-6.8-1.32-2.63-2.07-5.53-2.25-8.72-.18-3.6-.18-7.12,0-10.58.06-2.84.72-5.53,1.98-8.09,1.26-2.56,3-4.81,5.21-6.75,2.22-1.94,4.85-3.48,7.91-4.62s6.44-1.71,10.16-1.71ZM404.76,362.58c1.02,0,1.72-.07,2.11-.21.39-.14.58-.52.58-1.14,0-2.21-.94-4.06-2.83-5.55-1.89-1.49-4.27-2.23-7.14-2.23-1.38,0-2.67.17-3.87.52-1.2.35-2.26.85-3.19,1.5-.93.66-1.66,1.45-2.2,2.39-.54.93-.81,1.96-.81,3.06v1.66h17.35Z"/>
  </g>
  <g>
    <path class="cls-4" d="M135.23,204.99c-5.01.95-8.63,5.33-8.63,10.43v23.19c0,6.66,6.06,11.67,12.6,10.43l123.46-23.46,12.04-47.09-139.47,26.5Z"/>
    <path class="cls-2" d="M151.53,266.24l51.31-190.48c1.25-4.63,5.45-7.85,10.25-7.85h22.82c6.99,0,12.07,6.63,10.25,13.38l-51.31,190.48c-1.25,4.63-5.45,7.85-10.25,7.85h-22.82c-6.99,0-12.07-6.63-10.25-13.38Z"/>
    <path class="cls-4" d="M364.06,161.5l-42.27,8.03-12.04,47.09,58.28-11.08c5.01-.95,8.63-5.33,8.63-10.43v-23.19c0-6.66-6.06-11.67-12.6-10.43Z"/>
    <path class="cls-1" d="M252,267.25c-1.82,7.11,3.26,14.09,10.25,14.09h22.82c4.8,0,9-3.39,10.25-8.27l14.43-56.44-47.09,8.95-10.66,41.67Z"/>
    <polygon class="cls-4" points="274.69 178.48 262.65 225.58 309.75 216.63 321.79 169.53 274.69 178.48"/>
    <path class="cls-3" d="M368.02,130.09l-228.83,43.49c-6.54,1.24-12.6-3.77-12.6-10.43v-23.19c0-5.1,3.62-9.48,8.63-10.43l228.83-43.49c6.54-1.24,12.6,3.77,12.6,10.43v23.19c0,5.1-3.62,9.48-8.63,10.43Z"/>
    <path class="cls-1" d="M346.62,72.42c1.82-7.11-3.26-14.09-10.25-14.09h-22.82c-4.8,0-9,3.39-10.25,8.27l-28.61,111.88,47.09-8.95,24.83-97.11Z"/>
  </g>
  <g>
    <path class="cls-4" d="M94.65,436.39c.73-.22,1.44.14,1.44,1.02,0,.59-.23.94-.9,1.18-1.79.63-5,.94-7.07.94-1.61,0-2.81-.53-2.81-2.16v-5.79c0-.73.55-1.22,1.38-1.22h7.01c.67,0,1.06.43,1.06,1.14,0,.75-.39,1.16-1.06,1.16h-5.85v3.7c0,.51.16.83.85.83,2.2,0,4.25-.28,5.94-.79ZM93.45,440.38c3.64,0,5.98,1.5,5.98,4.07s-2.36,4.13-5.98,4.13c-3.82,0-6-1.5-6-4.13s2.17-4.07,6-4.07ZM93.45,446.29c2.05,0,3.41-.51,3.41-1.85s-1.36-1.85-3.41-1.85-3.41.53-3.41,1.85,1.38,1.85,3.41,1.85ZM96.99,430.68c0-.61.41-1.02,1.22-1.02s1.22.41,1.22,1.02v2.81h1.61c.63,0,1.04.35,1.04,1.18s-.41,1.18-1.04,1.18h-1.61v3.17c0,.61-.41,1.02-1.22,1.02s-1.22-.41-1.22-1.02v-8.33Z"/>
    <path class="cls-4" d="M111.38,440.76c-.73,0-1.3-.61-1.3-1.28,0-.28.08-.63.39-.89,2.7-2.28,4.03-4.9,4.59-6.89.18-.65.51-1.14,1.22-1.14,1.08,0,1.59.61,1.38,1.48-.77,3.23-2.76,6.26-5.33,8.37-.37.31-.63.35-.96.35ZM113.33,442.15c0-.61.49-1.02,1.3-1.02s1.3.41,1.3,1.02v3.03c0,.39.2.53.63.53h8.01c.63,0,1.04.37,1.04,1.2s-.41,1.2-1.04,1.2h-8.78c-1.42,0-2.46-.55-2.46-2.16v-3.8ZM116.66,437.13c-.16-.2-.26-.45-.26-.75,0-.63.55-1.24,1.24-1.24.26,0,.53.04.79.24.79.65,1.89,1.93,2.48,2.78.26.37.39.59.39.89,0,.91-.79,1.38-1.36,1.38s-.85-.26-1.16-.63l-2.11-2.68ZM122.82,430.68c0-.61.41-1.02,1.22-1.02s1.22.41,1.22,1.02v11.06c0,.61-.41,1.02-1.22,1.02s-1.22-.41-1.22-1.02v-11.06Z"/>
    <path class="cls-4" d="M134.97,443.65c0-.61.28-1.16.99-1.16,4.53,0,7.81-.47,10.16-1.2,1.08-.33,1.46.59,1.46,1.2,0,.57-.26.87-.63,1.02-2.68,1.04-8.13,1.42-10.83,1.38-.73-.02-1.16-.51-1.16-1.24ZM140.78,430.6c2.99,0,4.94,1.56,4.94,4.63s-1.95,4.66-4.94,4.66-5-1.48-5-4.66,2.03-4.63,5-4.63ZM140.78,432.84c-1.42,0-2.52.63-2.52,2.4s1.1,2.42,2.52,2.42,2.5-.65,2.5-2.42-1.08-2.4-2.5-2.4ZM148.04,430.68c0-.61.41-1.02,1.22-1.02s1.22.41,1.22,1.02v15.14c0,.61-.41,1.02-1.22,1.02s-1.22-.41-1.22-1.02v-15.14Z"/>
    <path class="cls-4" d="M173,431.15c0-.61.45-1.02,1.26-1.02h10.25c.63,0,1.04.28,1.04,1.12s-.41,1.1-1.04,1.1h-9.03v1.48c0,.43.18.63.73.63h8.31c.63,0,1.04.28,1.04,1.12s-.41,1.1-1.04,1.1h-3.92v1.56h5.98c.63,0,1.04.39,1.04,1.14s-.41,1.12-1.04,1.12h-14.86c-.63,0-1.04-.37-1.04-1.12s.41-1.14,1.04-1.14h6.44v-1.56h-2.52c-1.48,0-2.64-.41-2.64-1.99v-3.54ZM179.24,441.74c4.13,0,6.5.87,6.5,3.39,0,2.34-2.38,3.41-6.5,3.41-4.35,0-6.52-1.06-6.52-3.41,0-2.54,2.21-3.39,6.52-3.39ZM179.24,446.29c2.72,0,3.96-.28,3.96-1.16s-1.22-1.2-3.96-1.2-3.98.28-3.98,1.2,1.18,1.16,3.98,1.16Z"/>
    <path class="cls-4" d="M201.37,430.99c2.99,0,5.04,1.71,5.04,6.14s-2.05,6.16-5.04,6.16-5.1-1.57-5.1-6.16,2.14-6.14,5.1-6.14ZM201.37,433.35c-1.63,0-2.64,1.14-2.64,3.78s1.02,3.8,2.64,3.8,2.62-1.16,2.62-3.8-.99-3.78-2.62-3.78ZM208.45,430.68c0-.61.41-1.02,1.22-1.02s1.22.41,1.22,1.02v5.37h1.61c.63,0,1.04.35,1.04,1.18s-.41,1.18-1.04,1.18h-1.61v7.42c0,.61-.41,1.02-1.22,1.02s-1.22-.41-1.22-1.02v-15.14Z"/>
    <path class="cls-4" d="M223.36,433.28c-.57,0-.97-.41-.97-1.2,0-.85.41-1.2.97-1.2h6.44c1.12.02,1.57.85,1.57,1.38v4.9c0,.75-.55,1.18-1.08,1.18h-5.45v2.4c0,.57.28.96,1.08.96,2.11,0,4.13-.14,5.96-.57.73-.16,1.48.12,1.48,1.16,0,.63-.22,1.04-.9,1.22-1.89.51-4.47.69-6.93.69-1.67,0-3.23-.69-3.23-2.68v-4.35c0-.73.34-1.22,1.06-1.22h5.47v-2.32c0-.33-.2-.35-.51-.35h-4.96ZM234.27,430.68c0-.61.41-1.02,1.22-1.02s1.22.41,1.22,1.02v15.14c0,.61-.41,1.02-1.22,1.02s-1.22-.41-1.22-1.02v-15.14Z"/>
    <path class="cls-4" d="M248.48,444.16c.65,0,1.1.35,1.3.79.65,1.3.1,3.62-2.16,4.07-.28.06-.61-.14-.61-.61,0-.33.18-.43.39-.49.79-.22,1.06-.81.67-.89-.63-.18-1.04-.75-1.04-1.4,0-.79.55-1.46,1.44-1.46Z"/>
    <path class="cls-4" d="M270.61,442.88c-.63,0-1.04-.45-1.04-1.2s.41-1.2,1.04-1.2h14.86c.63,0,1.04.45,1.04,1.2s-.41,1.2-1.04,1.2h-6.04v4.51c0,.61-.47,1.02-1.28,1.02s-1.28-.41-1.28-1.02v-4.51h-6.26ZM278.05,430.13c3.86,0,6.67,1.14,6.67,4.39,0,3.01-2.81,4.37-6.67,4.37-4.07,0-6.69-1.34-6.69-4.37,0-3.25,2.64-4.39,6.69-4.39ZM278.05,436.6c2.4,0,4-.51,4-2.07,0-1.73-1.63-2.09-4-2.09-2.52,0-4.03.47-4.03,2.09s1.48,2.07,4.03,2.07Z"/>
    <path class="cls-4" d="M297.02,433.28c-.57,0-.97-.41-.97-1.2,0-.85.41-1.2.97-1.2h6.44c1.12.02,1.57.85,1.57,1.38v4.9c0,.75-.55,1.18-1.08,1.18h-5.45v2.4c0,.57.28.96,1.08.96,2.11,0,4.13-.14,5.96-.57.73-.16,1.48.12,1.48,1.16,0,.63-.22,1.04-.9,1.22-1.89.51-4.47.69-6.93.69-1.67,0-3.23-.69-3.23-2.68v-4.35c0-.73.34-1.22,1.06-1.22h5.47v-2.32c0-.33-.2-.35-.51-.35h-4.96ZM307.94,430.68c0-.61.41-1.02,1.22-1.02s1.22.41,1.22,1.02v15.14c0,.61-.41,1.02-1.22,1.02s-1.22-.41-1.22-1.02v-15.14Z"/>
    <path class="cls-4" d="M320.09,443.65c0-.61.28-1.16,1-1.16,4.53,0,7.81-.47,10.16-1.2,1.08-.33,1.46.59,1.46,1.2,0,.57-.26.87-.63,1.02-2.68,1.04-8.13,1.42-10.83,1.38-.73-.02-1.16-.51-1.16-1.24ZM325.9,430.6c2.99,0,4.94,1.56,4.94,4.63s-1.95,4.66-4.94,4.66-5-1.48-5-4.66,2.03-4.63,5-4.63ZM325.9,432.84c-1.42,0-2.52.63-2.52,2.4s1.1,2.42,2.52,2.42,2.5-.65,2.5-2.42-1.08-2.4-2.5-2.4ZM333.16,430.68c0-.61.41-1.02,1.22-1.02s1.22.41,1.22,1.02v15.14c0,.61-.41,1.02-1.22,1.02s-1.22-.41-1.22-1.02v-15.14Z"/>
    <path class="cls-4" d="M361.48,430.99c2.99,0,5.04,1.71,5.04,6.14s-2.05,6.16-5.04,6.16-5.1-1.57-5.1-6.16,2.14-6.14,5.1-6.14ZM361.48,433.35c-1.63,0-2.64,1.14-2.64,3.78s1.02,3.8,2.64,3.8,2.62-1.16,2.62-3.8-1-3.78-2.62-3.78ZM368.96,430.68c0-.61.41-1.02,1.22-1.02s1.22.41,1.22,1.02v15.14c0,.61-.41,1.02-1.22,1.02s-1.22-.41-1.22-1.02v-15.14Z"/>
    <path class="cls-4" d="M386.49,430.99c2.99,0,5.04,1.71,5.04,6.14s-2.05,6.16-5.04,6.16-5.1-1.57-5.1-6.16,2.14-6.14,5.1-6.14ZM386.49,433.35c-1.63,0-2.64,1.14-2.64,3.78s1.02,3.8,2.64,3.8,2.62-1.16,2.62-3.8-.99-3.78-2.62-3.78ZM393.57,430.68c0-.61.41-1.02,1.22-1.02s1.22.41,1.22,1.02v2.78h1.61c.63,0,1.04.33,1.04,1.16s-.41,1.16-1.04,1.16h-1.61v2.97h1.61c.63,0,1.04.33,1.04,1.16s-.41,1.16-1.04,1.16h-1.61v4.76c0,.61-.41,1.02-1.22,1.02s-1.22-.41-1.22-1.02v-15.14Z"/>
    <path class="cls-4" d="M408.5,443.69c-.63,0-1.12-.59-1.12-1.3,0-.47.18-.77.53-.94,3.54-1.56,5.85-4.25,5.98-7.11.02-.24-.04-.43-.37-.43h-4.92c-.55,0-1.04-.3-1.04-1.16s.49-1.24,1.04-1.24h5.98c1.56,0,2.07,1.06,2.01,2.28-.23,5.08-3.99,8.31-6.95,9.61-.41.18-.71.28-1.14.28ZM419.4,430.68c0-.61.41-1.02,1.22-1.02s1.22.41,1.22,1.02v15.14c0,.61-.41,1.02-1.22,1.02s-1.22-.41-1.22-1.02v-15.14Z"/>
  </g>
</svg>