<svg width="30" height="30" viewBox="0 0 30 30" fill="none" xmlns="http://www.w3.org/2000/svg">
<g clip-path="url(#clip0_265_3018)">
<path d="M27 0.375H3C1.55025 0.375 0.375 1.55025 0.375 3V27C0.375 28.4497 1.55025 29.625 3 29.625H27C28.4497 29.625 29.625 28.4497 29.625 27V3C29.625 1.55025 28.4497 0.375 27 0.375Z" fill="white"/>
<mask id="mask0_265_3018" style="mask-type:luminance" maskUnits="userSpaceOnUse" x="7" y="7" width="16" height="16">
<path d="M22.5 7.5H7.5V22.5H22.5V7.5Z" fill="white"/>
</mask>
<g mask="url(#mask0_265_3018)">
<path d="M22.2 15.1704C22.2 14.6385 22.1523 14.1272 22.0636 13.6362H15V16.5374H19.0363C18.8625 17.4749 18.3341 18.2692 17.5398 18.801V20.6829H19.9637C21.3818 19.3772 22.2 17.4544 22.2 15.1704Z" fill="#4285F4"/>
<path d="M14.9999 22.4998C17.0249 22.4998 18.7226 21.8282 19.9635 20.6828L17.5396 18.801C16.8681 19.251 16.009 19.5168 14.9999 19.5168C13.0465 19.5168 11.3931 18.1975 10.8033 16.4248H8.29761V18.368C9.53173 20.8191 12.0681 22.4998 14.9999 22.4998Z" fill="#34A853"/>
<path d="M10.8034 16.425C10.6534 15.975 10.5682 15.4943 10.5682 15C10.5682 14.5057 10.6534 14.025 10.8034 13.575V11.6318H8.2977C7.7898 12.6443 7.5 13.7898 7.5 15C7.5 16.2102 7.7898 17.3557 8.2977 18.3682L10.8034 16.425Z" fill="#FBBC04"/>
<path d="M14.9999 10.483C16.101 10.483 17.0896 10.8614 17.8669 11.6045L20.0181 9.45337C18.7192 8.24317 17.0215 7.5 14.9999 7.5C12.0681 7.5 9.53173 9.18068 8.29761 11.6318L10.8033 13.575C11.3931 11.8023 13.0465 10.483 14.9999 10.483Z" fill="#E94235"/>
</g>
<path d="M27 0.375H3C1.55025 0.375 0.375 1.55025 0.375 3V27C0.375 28.4497 1.55025 29.625 3 29.625H27C28.4497 29.625 29.625 28.4497 29.625 27V3C29.625 1.55025 28.4497 0.375 27 0.375Z" stroke="white"/>
</g>
<defs>
<clipPath id="clip0_265_3018">
<rect width="30" height="30" fill="white"/>
</clipPath>
</defs>
</svg>
